<?xml version="1.0" encoding="utf-8"?>
<!-- Generator: Adobe Illustrator 28.1.0, SVG Export Plug-In . SVG Version: 6.00 Build 0)  -->
<svg version="1.1" id="Layer_1" xmlns="http://www.w3.org/2000/svg" xmlns:xlink="http://www.w3.org/1999/xlink" x="0px" y="0px"
	 viewBox="0 0 1200 1200" style="enable-background:new 0 0 1200 1200;" xml:space="preserve">
<style type="text/css">
	.st0{fill:#FFFFFF;}
	.st1{fill:#FAA61A;}
</style>
<image style="display:none;overflow:visible;" width="2048" height="1152" xlink:href="../117612197_327080001674019_5311044697660917877_n.jpg"  transform="matrix(1 0 0 1 -424 24)">
</image>
<image style="display:none;overflow:visible;" width="2048" height="1152" xlink:href="../117612197_327080001674019_5311044697660917877_n.jpg"  transform="matrix(1 0 0 1 460.442 -1306.087)">
</image>
<image style="display:none;overflow:visible;opacity:0.57;" width="433" height="418" xlink:href="../314407216_525095219630218_696616620758139280_n.jpg"  transform="matrix(1.8277 0 0 1.8277 200.8467 216.36)">
</image>
<g>
	<g>
		<path d="M1652.2,501.6h13.6v-86.3h-13.6v-19.5h60.5c26.9,0,44.2,12.9,44.2,31.3c0,14-6.8,22.7-18.3,27.6
			c17.6,4.1,28.1,13.4,28.1,29.4c0,21.3-19.2,37.1-48.5,37.1h-66.1V501.6z M1692.9,415.2v31h14.3c13.6,0,21.5-5.2,21.5-15.2
			c0-9.9-7.9-15.8-21.5-15.8H1692.9z M1692.9,464.8v36.7h19.5c17.9,0,25.4-8.2,25.4-18.8c0-10.6-7.3-17.9-25.8-17.9H1692.9z"/>
		<path d="M1908,482.9l-2,38.1h-102.6v-19.5h13.6v-86.3h-13.6v-19.5h102.3v33.7h-24v-14.2H1844v32.2h41.9v20.8H1844v33.3h38.9
			l1.1-18.6H1908z"/>
		<path d="M2050.4,482.9l-2,38.1h-102.6v-19.5h13.6v-86.3h-13.6v-19.5H2048v33.7h-24v-14.2h-37.6v32.2h41.9v20.8h-41.9v33.3h38.9
			l1.1-18.6H2050.4z"/>
		<path d="M2142.1,521.1h-53.9v-19.5h13.6v-86.3h-13.6v-19.5h63.8c30.1,0,50.2,15.6,50.2,39.9c0,17.4-10.6,29.9-27.6,35.8l20.1,30.1
			h16.1v19.5h-35.8l-29.2-45.9h-16.8v26.3h13.3V521.1z M2128.8,415.2v40.5h21.5c14.5,0,23.8-6.6,23.8-20.1
			c0-13.4-9.3-20.4-23.8-20.4H2128.8z"/>
	</g>
	<g>
		<path d="M1793.3,295.8c-2.2,7.8-7.6,15.1-16.6,20.9c-19.9,12.8-38.5,9.5-50.9-9.8c-12.2-18.9-8.7-37.8,11.9-51.1
			c8.8-5.7,16.8-7.1,24.1-6.4l9.3,14.4L1760,271l-6-9.2c-3,0.5-6,1.6-9.4,3.8c-11.8,7.6-14,18.7-5.3,32.2
			c7.9,12.2,18.9,16.6,31.2,8.7c6.1-4,9.6-9.2,10.9-13.3L1793.3,295.8z"/>
		<path d="M1843.2,285.4l-28.8,8.6l-3.1-10.4l7.3-2.2l-13.7-46.1l-7.3,2.2l-3.1-10.4l34.1-10.1c16.1-4.8,29.3,0.4,33.2,13.4
			c2.8,9.3-0.9,17.7-9,23.5l15.5,12.9l8.6-2.6l3.1,10.4l-19.1,5.7l-22.9-19.9l-9,2.7l4.2,14.1l7.1-2.1L1843.2,285.4z M1819.2,231
			l6.4,21.6l11.5-3.4c7.8-2.3,11.7-7.3,9.5-14.5c-2.1-7.2-8.2-9.4-16-7.1L1819.2,231z"/>
		<path d="M1921.6,272.5l-28.4-0.4l0.1-10.9l7.4,0.1l25-58.7l14.5,0.2l23.5,59.3l7.4,0.1l-0.1,10.9l-28.4-0.4l0.1-10.9l5.7,0.1
			l-2.6-7l-27-0.4l-2.8,7l5.6,0.1L1921.6,272.5z M1923.3,243.6l18.6,0.2l-9-24.4L1923.3,243.6z"/>
		<path d="M2056.3,244.9l-12.8-3.9l2.3-7.5l-20.1-6.1l-6.4,21.2l22.4,6.8l-3.2,10.4l-22.4-6.8l-4.4,14.4l7.1,2.1l-3.2,10.4
			l-28.8-8.7l3.2-10.4l7.3,2.2l14-46.1l-7.3-2.2l3.2-10.4l54.6,16.5L2056.3,244.9z"/>
		<path d="M2144.1,272.5l-9.8,16l-11.5-7.1l4.1-6.7l-8.6-5.3l-25.2,41l6.4,3.9l-5.7,9.3l-25.7-15.8l5.7-9.3l6.4,3.9l25.2-41
			l-8.5-5.2l-4.1,6.7l-11.4-7l9.8-16L2144.1,272.5z"/>
	</g>
	<g>
		<path d="M1634.7,893.4l-5.1,6.5c2.3,2.8,5.1,5.4,7.6,7.4c6.1,4.7,11.6,6,15.2,1.4c8.2-10.6-23.4-25.6-10.3-42.6
			c8.2-10.6,19.4-7.1,28.2-0.3c7,5.4,12.5,12.1,14.9,17.1l-8.5,11l-8.7-6.7l4.6-6c-2-2.6-4.5-5.3-7.7-7.7c-5.2-4-9.6-4.8-12.6-0.8
			c-7.7,9.9,24,24.8,10.5,42.4c-8.5,11-20.8,7.6-31.8-0.8c-6.4-4.9-12.5-11.6-14.4-15.4l9.4-12.2L1634.7,893.4z"/>
		<path d="M1676.1,936.4l49.2-22.5l-17.2-9.5l-3.3,6l-10.2-5.6l7.8-14.2l41.9,23.1l-3.6,6.5l-49.2,22.5l19.7,10.9l2.8-5.1l10.1,5.6
			l-7.4,13.3l-44.3-24.5L1676.1,936.4z"/>
		<path d="M1759.3,984.8l-23-8.3l3.2-8.8l6,2.2l37-40.7l11.7,4.3l2.3,55l6,2.2l-3.2,8.8l-23-8.3l3.2-8.8l4.6,1.7l-0.1-6.5l-21.9-7.9
			l-4.2,4.9l4.5,1.6L1759.3,984.8z M1768.8,961.8l15.1,5.5l-0.4-22.4L1768.8,961.8z"/>
		<path d="M1848,1008.7l-25.6-4.2l1.5-9.3l6.5,1.1l6.8-40.9l-6.5-1.1l1.5-9.3l30.2,5c14.3,2.4,22.6,11.3,20.7,22.9
			c-1.4,8.2-7.3,13.4-15.9,14.8l7.2,15.8l7.6,1.3l-1.5,9.3l-17-2.8l-10.3-24l-8-1.3l-2.1,12.5l6.3,1L1848,1008.7z M1850,957.5
			l-3.2,19.2l10.2,1.7c6.9,1.1,11.8-1.3,12.9-7.6c1-6.4-2.8-10.4-9.7-11.5L1850,957.5z"/>
		<path d="M1966.2,964.4l-6.9,0.1l-19.4,51.1l-13.2,0.1l-20.5-50.7l-6.7,0.1l-0.1-9.4l26.7-0.3l0.1,9.4l-6.3,0.1l13.2,36.9
			l12.6-37.1l-6.3,0.1l-0.1-9.4l26.8-0.3L1966.2,964.4z"/>
		<path d="M2003.3,1009.8l-24.1,4.2l-1.6-9.2l6.3-1.1l11.8-53.7l12.3-2.2l29.4,46.5l6.3-1.1l1.6,9.2l-24.1,4.2l-1.6-9.2l4.8-0.9
			l-3.3-5.5l-22.9,4l-1.2,6.3l4.7-0.8L2003.3,1009.8z M2000.1,985.1l15.8-2.8l-11.5-19.2L2000.1,985.1z"/>
		<path d="M2071.8,975.3l2.7,7.8c3.6-0.4,7.3-1.3,10.3-2.3c7.2-2.5,11.3-6.5,9.4-12c-4.5-12.7-34.2,5.7-41.3-14.5
			c-4.4-12.6,4.6-20.1,15.1-23.8c8.3-2.9,17-3.9,22.4-3.2l4.6,13.2l-10.3,3.6l-2.5-7.1c-3.3,0.2-6.9,1-10.6,2.3
			c-6.2,2.2-9.2,5.4-7.6,10.1c4.2,11.9,33.9-6.6,41.2,14.2c4.6,13.2-4.9,21.6-18,26.2c-7.6,2.7-16.6,4.2-20.8,3.7l-5.1-14.5
			L2071.8,975.3z"/>
		<path d="M2157.9,957.6l-22.7,12.5l-4.5-8.2l5.7-3.1l-19.9-36.4l-5.7,3.1l-4.5-8.2l22.7-12.5l4.5,8.2l-5.6,3.1l10.1,18.3l7.3-27.9
			l-3.8,2.1l-4.5-8.2l22.5-12.3l4.5,8.2l-5.1,2.8l-6.5,23.9l28.2,11.5l5.8-3.2l4.5,8.2l-23.3,12.7l-4.5-8.2l3.5-1.9L2149,935
			l-3.6,13.1l2.4,4.4l5.6-3.1L2157.9,957.6z"/>
		<path d="M2189.3,859.9l-8.2,6.7l-1.6-17.4l9.8-8L2189.3,859.9z M2194.1,860.2c15.4-12.4,32.9-11,44.6,3.5
			c11.8,14.6,9.9,32.6-5.5,45c-15.5,12.5-33.6,10.6-45.4-4C2176.2,890.3,2178.6,872.7,2194.1,860.2z M2202.8,849l-8.3,6.7l-1.5-17.5
			l9.8-7.9L2202.8,849z M2200.6,868.3c-9,7.3-9,18.3-1.4,27.8c7.3,9,18.2,12.2,27.3,4.8c9-7.3,8.7-18.8,1.2-28.2
			C2220.3,863.5,2209.6,861,2200.6,868.3z"/>
	</g>
	<path d="M1957.3,628.6c-13.5-3-27.6-4.4-41.4-4.6c-27.4-0.3-54.7,1.4-81.2,8.8c-15.7,4.4-22.6,18.4-16.8,33.2
		c6.2,16,22.6,25.6,39.1,21.4c8.5-2.2,16.5-6.8,24.3-11.2c7.6-4.3,14.3-10.2,21.9-14.5c16.2-9,33.5-11.5,51.6-6.2
		c16.7,4.9,25.9,19.5,23.3,36.8c-4.2,27.6-29.4,50.2-58.3,51.6c0-2.8-0.1-5.6,0-8.4c0.5-12.9,1.5-25.8,1.4-38.7
		c-0.1-13.4-12.3-21.8-24.6-17.5c-7.9,2.7-12.2,9.7-12.1,19.5c0.1,15.9,0,31.8,0,47.6c-8.4,0-16.1,0.2-23.7-0.1
		c-12.3-0.4-20.9,6.3-21.6,17.1c-0.7,11.3,6.4,18.9,18.9,19.8c8.7,0.6,17.4,0.8,26.1,1.2c1.2,14.2,1.8,27.8,3.6,41.4
		c1.6,12.7,3.2,25.7,7.1,37.8c4.4,13.5,19,18.6,35,14.5c12.1-3.1,18.2-12.1,16.1-26.8c-1.2-8.5-4.9-16.7-7.8-24.9
		c-5.5-15.5-11.3-30.8-17.3-47c4.5-1.7,6.7-2.4,8.8-3.3c32.3-14.1,58.8-34.6,70.9-69.1C2012.3,673.2,1992.3,636.5,1957.3,628.6z"/>
	<path d="M2280.7,703.9c-9.5-43.5-64-2.6-91.2-4.1c-19,0.5-28.9-17.3-36.2-33.1c-9.3-20.5-17-42.4-30.5-60.8
		c-12.9-17.2-35.6-28.3-55-14.9c-36.1,25.7-53.9,102.5-48.5,144.9c2.8,32,22.7,44.4,52.7,48.6c20.6,2.7,43.5,1.9,60.9-10.7
		c22-14.9,16.3-55.9-13.3-54.7c-16,0.7-22.7,18.8-36.7,23.9c-10.3,4.3-24,0.3-29.9-9.3c-14-26.4,1.9-67.8,15.6-92
		c11.9-20.5,22-23.2,33.1,0.6c7.1,14.3,13.5,28.8,20.8,42.9c21.1,42.5,52.7,56.1,98.7,59.3c11.2,1.1,23.2,0.7,34.2-0.6
		c22.6-2.1,27.8-19.4,25.1-39.7L2280.7,703.9z"/>
	<path d="M1823.4,699.2c-5.9-11.5-15.4-21.2-27-26.8c-13.3-6.4-28.6-7.8-43-10.8c-13.4-2.6-36.9-5.6-33.6-24.3
		c1.9-8.7,8.6-16,16.2-20.4c8.3-4.8,18.4-5.5,27.9-6.5c10-1.4,19.5,0,29.5,0.6c7.5,0.2,15.3-0.8,20.2-6.7c7-8.1,4.4-22.2-5.8-26.6
		c-12.1-5.1-26.6-3.8-39.4-2.9c-35.8,3.5-76.8,23.1-82,63c-2.8,21.5,11.6,39.5,32.2,44.8c14.4,3.9,29.3,5.3,43.9,8.4
		c7.6,1.5,15.4,3.4,21.2,8.1c10.4,7.7,12.1,24.9,5.8,36.3c-8.8,16-31.9,13.8-46.4,6.6c-19.1-10-37.3-21.8-55-34.1
		c-8.5-5.9-16.9-12-26.1-16.8c-13.3-6.9-27.9-9.9-42.7-9.2c-13.8,0.1-27.4,7.3-33.5,19.9c-6.4,11.9-6.2,28.9,4.4,38.4
		c14.2,11.3,34.2,4.1,50.8,6.3c12.8,1,24.7,6.5,35.8,12.7c40.3,23.6,104.6,45.8,139.9,3.3c14.1-17.6,17.5-42.6,6.9-62.9
		L1823.4,699.2z"/>
</g>
<g>
	<path class="st0" d="M1716.6,657.4c-24.7-18.7,3.4-53.3,27.8-53.1C1722.4,614.6,1700.9,631.9,1716.6,657.4z"/>
	<path class="st0" d="M1653.3,704.9c-16.7-9.4-44.6-21.2-58.7-1.8c-1.9,2.3-2.3,1.2-1.3-1.2C1604.2,679,1641.1,687.9,1653.3,704.9z"
		/>
	<path class="st0" d="M2262.3,731.4c-20,8.3-43.9,1.6-64.7-1c-3.6-1.1,1-1.5,2.4-1.4C2220.5,730.3,2242.5,730.8,2262.3,731.4z"/>
	<path class="st0" d="M2044.1,645.5c7.5-16.6,16.2-42.4,34.6-48.9C2064.4,609.9,2057,631.8,2044.1,645.5z"/>
	<path class="st0" d="M2090.8,773.3c13.8-8.7,33.2-10.2,42.6-25.4c1.4-1.6,1.9-1,1.4,0.8C2128.7,765.5,2106.5,773,2090.8,773.3z"/>
	<path class="st0" d="M1926.7,869.2c9.2-14.1,0.4-31.6-4.2-46.1c-0.6-1.5-1.1-4.6,1.1-2.2C1931.6,832.4,1943,861.3,1926.7,869.2z"/>
	<path class="st0" d="M1869.5,670.7c-8.8,9.7-32.6,9.3-38.4-0.3C1843.4,675.2,1856.8,672.2,1869.5,670.7z"/>
</g>
<g>
	<circle class="st1" cx="-788.3" cy="602.8" r="262.1"/>
	<circle class="st1" cx="-1063.7" cy="209.8" r="30.7"/>
	<circle class="st1" cx="-792.9" cy="195.8" r="24.8"/>
	<circle class="st1" cx="-694" cy="245.4" r="24.8"/>
	<circle class="st1" cx="-816.3" cy="107.7" r="24.8"/>
	<circle class="st1" cx="-623.8" cy="129.4" r="24.8"/>
	<circle class="st1" cx="-486.1" cy="518.2" r="24.8"/>
	<circle class="st1" cx="-414.8" cy="840.4" r="24.8"/>
	<circle class="st1" cx="-699.1" cy="931.5" r="24.8"/>
	<circle class="st1" cx="-758.4" cy="1011.8" r="21.5"/>
	<circle class="st1" cx="-850.6" cy="1080.3" r="24.8"/>
	<circle class="st1" cx="-878.5" cy="903.5" r="24.8"/>
	<circle class="st1" cx="-1170.8" cy="600" r="24.8"/>
	<circle class="st1" cx="-1082.9" cy="878.7" r="24.8"/>
	<circle class="st1" cx="-529.9" cy="282.1" r="30.7"/>
	<circle class="st1" cx="-662.1" cy="1090.6" r="30.7"/>
	<circle class="st1" cx="-1165.1" cy="720.2" r="81.4"/>
	<circle class="st1" cx="-1267.9" cy="496.7" r="30.7"/>
	<circle class="st1" cx="-1225.5" cy="438.4" r="14"/>
	<circle class="st1" cx="-1170.4" cy="240.5" r="14"/>
	<circle class="st1" cx="-994" cy="223.7" r="14"/>
	<circle class="st1" cx="-953.6" cy="92.9" r="14"/>
	<circle class="st1" cx="-642.1" cy="209.8" r="14"/>
	<circle class="st1" cx="-644.3" cy="282.1" r="14"/>
	<circle class="st1" cx="-606.8" cy="256.2" r="17.4"/>
	<circle class="st1" cx="-483.7" cy="198.3" r="14"/>
	<circle class="st1" cx="-452.7" cy="274.9" r="14"/>
	<circle class="st1" cx="-336.1" cy="493.9" r="14"/>
	<circle class="st1" cx="-473.7" cy="618.6" r="14"/>
	<circle class="st1" cx="-306.3" cy="727" r="14"/>
	<circle class="st1" cx="-445.8" cy="879.2" r="14"/>
	<circle class="st1" cx="-749.1" cy="899.7" r="14"/>
	<circle class="st1" cx="-769.2" cy="1085.8" r="14"/>
	<circle class="st1" cx="-864.6" cy="1006.7" r="14"/>
	<circle class="st1" cx="-1184.8" cy="885.7" r="14"/>
	<circle class="st1" cx="-978" cy="836.3" r="14"/>
	<circle class="st1" cx="-1075.6" cy="773" r="14"/>
	<circle class="st1" cx="-1096.9" cy="634.7" r="14"/>
	<circle class="st1" cx="-1057.8" cy="476" r="14"/>
	<circle class="st1" cx="-1107.6" cy="482.7" r="14"/>
	<circle class="st1" cx="-943.9" cy="273.8" r="14"/>
	<path class="st1" d="M-1242.4,653.4c0.9,1.1,1.5,2.5,1.5,4c0,3.4-2.8,6.2-6.2,6.2s-6.2-2.8-6.2-6.2c0-2.6,1.7-4.9,4-5.8
		c-7.7,0-13.9,6.3-13.9,14c0,7.7,6.3,14,14,14c7.7,0,14-6.3,14-14C-1235.1,660.4-1238,655.8-1242.4,653.4z"/>
	<path class="st1" d="M-1184.2,470.5c0.9,1.1,1.5,2.5,1.5,4c0,3.4-2.8,6.2-6.2,6.2c-3.4,0-6.2-2.8-6.2-6.2c0-2.6,1.7-4.9,4-5.8
		c-7.7,0-13.9,6.3-13.9,14c0,7.7,6.3,14,14,14s14-6.3,14-14C-1177,477.4-1179.9,472.9-1184.2,470.5z"/>
	<path class="st1" d="M-1245.7,333.7c0.9,1.1,1.5,2.5,1.5,4c0,3.4-2.8,6.2-6.2,6.2c-3.4,0-6.2-2.8-6.2-6.2c0-2.6,1.7-4.9,4-5.8
		c-7.7,0-13.9,6.3-13.9,14c0,7.7,6.3,14,14,14c7.7,0,14-6.3,14-14C-1238.5,340.7-1241.4,336.1-1245.7,333.7z"/>
	<path class="st1" d="M-1048.2,730.4c0.9,1.1,1.5,2.5,1.5,4c0,3.4-2.8,6.2-6.2,6.2c-3.4,0-6.2-2.8-6.2-6.2c0-2.6,1.7-4.9,4-5.8
		c-7.7,0-13.9,6.3-13.9,14c0,7.7,6.3,14,14,14c7.7,0,14-6.3,14-14C-1040.9,737.3-1043.8,732.7-1048.2,730.4z"/>
	<path class="st1" d="M-1021.1,822.5c1.4-0.4,2.9-0.3,4.3,0.3c3.1,1.4,4.4,5.1,3,8.2c-1.4,3.1-5.1,4.4-8.2,3
		c-2.4-1.1-3.7-3.6-3.5-6.1c-3.2,7-0.2,15.3,6.7,18.5c7,3.3,15.3,0.3,18.6-6.7s0.3-15.3-6.7-18.6
		C-1011.7,818.9-1017.1,819.6-1021.1,822.5z"/>
	<path class="st1" d="M-887.3,942.3c0.4,1.4,0.2,2.9-0.5,4.3c-1.5,3-5.3,4.3-8.3,2.7c-3-1.5-4.3-5.3-2.7-8.3
		c1.2-2.4,3.7-3.6,6.2-3.3c-6.9-3.5-15.3-0.7-18.7,6.2c-3.5,6.9-0.7,15.3,6.1,18.8c6.9,3.5,15.3,0.7,18.8-6.1
		C-884,951.7-884.5,946.3-887.3,942.3z"/>
	<path class="st1" d="M-633.8,909.6c0.4,1.4,0.2,2.9-0.5,4.3c-1.5,3-5.3,4.3-8.3,2.7c-3-1.5-4.3-5.3-2.7-8.3
		c1.2-2.4,3.7-3.6,6.2-3.3c-6.9-3.5-15.3-0.7-18.7,6.2c-3.5,6.9-0.7,15.3,6.1,18.8c6.9,3.5,15.3,0.7,18.8-6.1
		C-630.5,919.1-631,913.7-633.8,909.6z"/>
	<path class="st1" d="M-925.4,983.9c1.4,0.3,2.7,1.1,3.6,2.4c2,2.8,1.4,6.6-1.4,8.6s-6.6,1.4-8.6-1.4c-1.6-2.1-1.5-4.9-0.1-7
		c-6.2,4.5-7.6,13.2-3.1,19.5c4.5,6.3,13.3,7.7,19.5,3.1c6.3-4.5,7.7-13.3,3.1-19.5C-915.5,985.3-920.5,983.3-925.4,983.9z"/>
	<path class="st1" d="M-689.8,985.2c1.4,0.3,2.7,1.1,3.6,2.4c2,2.8,1.4,6.6-1.4,8.6c-2.8,2-6.6,1.4-8.6-1.4c-1.6-2.1-1.5-4.9-0.1-7
		c-6.2,4.5-7.6,13.2-3.1,19.5c4.5,6.3,13.3,7.7,19.5,3.1c6.3-4.5,7.7-13.3,3.1-19.5C-679.8,986.6-684.9,984.6-689.8,985.2z"/>
	<path class="st1" d="M-652,865.1c1.4,0.3,2.7,1.1,3.6,2.4c2,2.8,1.4,6.6-1.4,8.6c-2.8,2-6.6,1.4-8.6-1.4c-1.6-2.1-1.5-4.9-0.1-7
		c-6.2,4.5-7.6,13.2-3.1,19.5c4.5,6.3,13.3,7.7,19.5,3.1s7.7-13.3,3.1-19.5C-642,866.5-647.1,864.5-652,865.1z"/>
	<path class="st1" d="M-524.2,1019.3c1.4,0.3,2.7,1.1,3.6,2.4c2,2.8,1.4,6.6-1.4,8.6c-2.8,2-6.6,1.4-8.6-1.4c-1.6-2.1-1.5-4.9-0.1-7
		c-6.2,4.5-7.6,13.2-3.1,19.5c4.5,6.3,13.3,7.7,19.5,3.1c6.3-4.5,7.7-13.3,3.1-19.5C-514.3,1020.7-519.3,1018.7-524.2,1019.3z"/>
	<path class="st1" d="M-418.1,960.2c1.4,0.3,2.7,1.1,3.6,2.4c2,2.8,1.4,6.6-1.4,8.6c-2.8,2-6.6,1.4-8.6-1.4c-1.6-2.1-1.5-4.9-0.1-7
		c-6.2,4.5-7.6,13.2-3.1,19.5c4.5,6.3,13.3,7.7,19.5,3.1c6.3-4.5,7.7-13.3,3.1-19.5C-408.2,961.6-413.2,959.6-418.1,960.2z"/>
	<path class="st1" d="M-325.7,652.9c1.4,0.3,2.7,1.1,3.6,2.4c2,2.8,1.4,6.6-1.4,8.6c-2.8,2-6.6,1.4-8.6-1.4c-1.6-2.1-1.5-4.9-0.1-7
		c-6.2,4.5-7.6,13.2-3.1,19.5c4.5,6.3,13.3,7.7,19.5,3.1c6.3-4.5,7.7-13.3,3.1-19.5C-315.8,654.3-320.8,652.3-325.7,652.9z"/>
	<path class="st1" d="M-495.9,449.6c1.4-0.1,2.9,0.2,4.2,1.1c2.8,2,3.4,5.9,1.4,8.6c-2,2.8-5.9,3.4-8.6,1.4c-2.1-1.6-3-4.2-2.3-6.6
		c-4.5,6.3-3.1,15,3.2,19.5c6.3,4.5,15,3.1,19.5-3.2c4.5-6.3,3.1-15-3.2-19.5C-486,447.8-491.4,447.5-495.9,449.6z"/>
	<path class="st1" d="M-333.7,423.7c0.3,1.4,0.1,2.9-0.7,4.3c-1.7,3-5.5,4-8.4,2.3c-3-1.7-4-5.5-2.3-8.4c1.3-2.3,3.9-3.4,6.4-3
		c-6.7-3.8-15.2-1.5-19,5.2c-3.9,6.7-1.6,15.2,5.1,19.1c6.7,3.9,15.2,1.6,19.1-5.1C-330.9,433.3-331.2,427.9-333.7,423.7z"/>
	<path class="st1" d="M-412.3,497c0.3,1.4,0.1,2.9-0.7,4.3c-1.7,3-5.5,4-8.4,2.3c-3-1.7-4-5.5-2.3-8.4c1.3-2.3,3.9-3.4,6.4-3
		c-6.7-3.8-15.2-1.5-19,5.2c-3.9,6.7-1.6,15.2,5.1,19.1c6.7,3.9,15.2,1.6,19.1-5.1C-409.5,506.6-409.8,501.2-412.3,497z"/>
	<path class="st1" d="M-554.8,393.7c0.3,1.4,0.1,2.9-0.7,4.3c-1.7,3-5.5,4-8.4,2.3c-3-1.7-4-5.5-2.3-8.4c1.3-2.3,3.9-3.4,6.4-3
		c-6.7-3.8-15.2-1.5-19,5.2c-3.9,6.7-1.6,15.2,5.1,19.1s15.2,1.6,19.1-5.1C-552,403.4-552.3,397.9-554.8,393.7z"/>
	<path class="st1" d="M-657.2,320.1c0.3,1.4,0.1,2.9-0.7,4.3c-1.7,3-5.5,4-8.4,2.3c-3-1.7-4-5.5-2.3-8.4c1.3-2.3,3.9-3.4,6.4-3
		c-6.7-3.8-15.2-1.5-19,5.2c-3.9,6.7-1.6,15.2,5.1,19.1s15.2,1.6,19.1-5.1C-654.4,329.8-654.7,324.3-657.2,320.1z"/>
	<path class="st1" d="M-696.9,294.2c0,1.4-0.4,2.9-1.4,4.1c-2.2,2.6-6.1,3-8.7,0.9c-2.6-2.2-3-6.1-0.9-8.7c1.7-2,4.4-2.7,6.8-1.9
		c-6-4.9-14.7-4-19.6,2c-4.9,6-4,14.8,2,19.7c6,4.9,14.8,4,19.7-2C-695.7,304.2-695.1,298.8-696.9,294.2z"/>
	<path class="st1" d="M-722.6,149.1c0,1.4-0.4,2.9-1.4,4.1c-2.2,2.6-6.1,3-8.7,0.9c-2.6-2.2-3-6.1-0.9-8.7c1.7-2,4.4-2.7,6.8-1.9
		c-6-4.9-14.7-4-19.6,2c-4.9,6-4,14.8,2,19.7c6,4.9,14.8,4,19.7-2C-721.4,159-720.8,153.6-722.6,149.1z"/>
	<path class="st1" d="M-911.3,226.2c0,1.4-0.4,2.9-1.4,4.1c-2.2,2.6-6.1,3-8.7,0.9c-2.6-2.2-3-6.1-0.9-8.7c1.7-2,4.4-2.7,6.8-1.9
		c-6-4.9-14.7-4-19.6,2c-4.9,6-4,14.8,2,19.7s14.8,4,19.7-2C-910.1,236.2-909.5,230.8-911.3,226.2z"/>
	<path class="st1" d="M-1030.7,292.7c1.4-0.2,2.9,0.1,4.2,0.9c2.9,1.9,3.7,5.7,1.8,8.5c-1.9,2.9-5.7,3.7-8.5,1.8
		c-2.2-1.4-3.2-4.1-2.6-6.5c-4.2,6.5-2.3,15.1,4.1,19.3c6.5,4.2,15.1,2.4,19.3-4.1c4.2-6.5,2.4-15.1-4.1-19.3
		C-1020.9,290.4-1026.4,290.4-1030.7,292.7z"/>
	<path class="st1" d="M-257.5,708.6c-1.4-0.4-2.7-1.2-3.5-2.5c-1.9-2.8-1.2-6.7,1.7-8.6c2.8-1.9,6.7-1.2,8.6,1.7
		c1.5,2.2,1.3,5-0.1,7c6.4-4.3,8-13,3.7-19.4c-4.3-6.4-13-8.1-19.4-3.8c-6.4,4.3-8.1,13-3.8,19.4
		C-267.4,706.9-262.4,709.1-257.5,708.6z"/>
	<path class="st1" d="M-1126.3,981.5c1.4,0.3,2.7,1.1,3.6,2.4c2,2.8,1.4,6.6-1.4,8.6c-2.8,2-6.6,1.4-8.6-1.4c-1.5-2.2-1.5-5-0.1-7
		c-6.2,4.5-7.7,13.2-3.2,19.5c4.5,6.3,13.2,7.7,19.5,3.2s7.7-13.2,3.2-19.5C-1116.4,982.9-1121.5,980.9-1126.3,981.5z"/>
	<path class="st1" d="M-978.6,1087.8c-1.4-0.4-2.6-1.3-3.4-2.6c-1.8-2.9-0.9-6.7,2-8.5c2.9-1.8,6.7-0.9,8.5,2c1.4,2.3,1.1,5-0.4,7
		c6.5-4.1,8.6-12.6,4.5-19.2c-4-6.6-12.7-8.6-19.2-4.6c-6.6,4-8.6,12.7-4.6,19.2C-988.4,1085.7-983.5,1088.1-978.6,1087.8z"/>
	<path class="st1" d="M-1114.6,586.3c0,1.4-0.4,2.9-1.5,4.1c-2.2,2.6-6.1,2.9-8.7,0.7c-2.6-2.2-2.9-6.1-0.7-8.7
		c1.7-2,4.5-2.6,6.8-1.8c-5.9-5-14.7-4.3-19.7,1.6c-5,5.9-4.3,14.7,1.5,19.7c5.9,5,14.7,4.3,19.7-1.5
		C-1113.6,596.2-1112.8,590.9-1114.6,586.3z"/>
	<path class="st1" d="M-1229.3,505.7c1.4,0.2,2.8,0.9,3.7,2.1c2.2,2.6,1.8,6.5-0.8,8.7c-2.6,2.2-6.5,1.8-8.7-0.8
		c-1.7-2-1.8-4.8-0.6-7c-5.9,4.9-6.8,13.7-1.9,19.6c4.9,6,13.7,6.8,19.7,1.9c6-4.9,6.8-13.7,1.9-19.7
		C-1219.3,506.4-1224.4,504.8-1229.3,505.7z"/>
	<path class="st1" d="M-1132.5,496.7c-17,0-30.7,13.7-30.7,30.7c0,17,13.7,30.7,30.7,30.7c17,0,30.7-13.7,30.7-30.7
		C-1101.8,510.4-1115.6,496.7-1132.5,496.7z M-1142.9,520c-3.6,5-8.4,7.6-10.8,5.9c-2.4-1.7-1.4-7.1,2.2-12.1
		c3.6-5,8.4-7.6,10.8-5.9C-1138.3,509.6-1139.3,515-1142.9,520z"/>
	<path class="st1" d="M-1045.3,905.5c-17,0-30.7,13.7-30.7,30.7c0,17,13.7,30.7,30.7,30.7c17,0,30.7-13.7,30.7-30.7
		C-1014.6,919.2-1028.3,905.5-1045.3,905.5z M-1055.6,928.7c-3.6,5-8.4,7.6-10.8,5.9c-2.4-1.7-1.4-7.1,2.2-12.1
		c3.6-5,8.4-7.6,10.8-5.9C-1051.1,918.4-1052.1,923.8-1055.6,928.7z"/>
	<path class="st1" d="M-796.3,948.6c4.7-16.3-4.7-33.3-21-38c-16.3-4.7-33.3,4.7-38,21c-4.7,16.3,4.7,33.3,21,38
		C-818,974.2-801,964.8-796.3,948.6z M-815.8,932.1c-3.8-4.8-4.9-10.2-2.6-12c2.3-1.8,7.2,0.7,11,5.5c3.8,4.8,4.9,10.2,2.6,12
		C-807.1,939.4-812,937-815.8,932.1z"/>
	<path class="st1" d="M-548.6,824c-16.5,3.9-26.7,20.4-22.8,36.9c3.9,16.5,20.4,26.7,36.9,22.8c16.5-3.9,26.7-20.4,22.8-36.9
		C-515.6,830.3-532.1,820.1-548.6,824z M-553.3,849.1c-2.4,5.7-6.5,9.3-9.2,8.2c-2.7-1.1-3-6.6-0.6-12.3c2.4-5.7,6.5-9.3,9.2-8.2
		C-551.3,837.9-551,843.4-553.3,849.1z"/>
	<path class="st1" d="M-435.6,409.8c-16.8,2.1-28.8,17.4-26.7,34.2c2.1,16.8,17.4,28.8,34.2,26.7c16.8-2.1,28.8-17.4,26.7-34.2
		C-403.5,419.7-418.8,407.7-435.6,409.8z M-443,434.2c-3,5.4-7.4,8.6-10,7.2c-2.6-1.4-2.3-6.9,0.7-12.3c3-5.4,7.4-8.6,10-7.2
		C-439.8,423.3-440.1,428.8-443,434.2z"/>
	<path class="st1" d="M-323.7,369.6c5.3-16.1-3.4-33.5-19.5-38.8c-16.1-5.3-33.5,3.4-38.8,19.5c-5.3,16.1,3.4,33.5,19.5,38.8
		C-346.4,394.4-329,385.7-323.7,369.6z M-342.5,352.4c-3.6-5-4.6-10.4-2.2-12.1c2.4-1.7,7.2,0.9,10.8,5.9c3.6,5,4.6,10.4,2.2,12.1
		C-334.1,360-339,357.4-342.5,352.4z"/>
	<path class="st1" d="M-762.7,250.2c-16.8,2.1-28.8,17.4-26.7,34.2c2.1,16.8,17.4,28.8,34.2,26.7c16.8-2.1,28.8-17.4,26.7-34.2
		C-730.5,260-745.8,248.1-762.7,250.2z M-770.1,274.6c-3,5.4-7.4,8.6-10,7.2c-2.6-1.4-2.3-6.9,0.7-12.3c3-5.4,7.4-8.6,10-7.2
		C-766.8,263.7-767.1,269.2-770.1,274.6z"/>
	<path class="st1" d="M-955.2,296.7c-17,0.1-30.6,13.9-30.5,30.9c0.1,17,13.9,30.6,30.9,30.5c17-0.1,30.6-13.9,30.5-30.9
		C-924.5,310.2-938.3,296.6-955.2,296.7z M-965.5,320c-3.6,5-8.4,7.6-10.8,5.9c-2.4-1.7-1.4-7.1,2.1-12.1c3.6-5,8.4-7.6,10.8-5.9
		C-960.9,309.6-961.9,315-965.5,320z"/>
	<circle class="st1" cx="-1256.3" cy="579.1" r="53.5"/>
	<circle class="st1" cx="-864.9" cy="260.9" r="53.5"/>
	<circle class="st1" cx="-597.5" cy="335.6" r="37.5"/>
	<circle class="st1" cx="-502.2" cy="389.1" r="53.5"/>
	<circle class="st1" cx="-410.3" cy="585.5" r="53.5"/>
	<circle class="st1" cx="-288.8" cy="571.7" r="53.5"/>
	<circle class="st1" cx="-1084.4" cy="379.1" r="81.4"/>
	<circle class="st1" cx="-584.2" cy="943.6" r="53.5"/>
	<circle class="st1" cx="-964" cy="899.7" r="53.5"/>
	<circle class="st1" cx="-440.6" cy="733.4" r="80.9"/>
</g>
<g>
	<g>
		<path d="M-907.3,564.8h5.8V528h-5.8v-8.3h25.8c11.5,0,18.9,5.5,18.9,13.4c0,6-2.9,9.7-7.8,11.8c7.5,1.8,12,5.7,12,12.5
			c0,9.1-8.2,15.8-20.7,15.8h-28.2V564.8z M-890,528v13.2h6.1c5.8,0,9.2-2.2,9.2-6.5c0-4.2-3.4-6.7-9.2-6.7H-890z M-890,549.2v15.7
			h8.3c7.6,0,10.8-3.5,10.8-8s-3.1-7.6-11-7.6H-890z"/>
		<path d="M-798.3,556.9l-0.8,16.3h-43.8v-8.3h5.8V528h-5.8v-8.3h43.6v14.4h-10.2v-6h-16v13.7h17.9v8.9h-17.9v14.2h16.6l0.5-7.9
			H-798.3z"/>
		<path d="M-737.6,556.9l-0.8,16.3h-43.8v-8.3h5.8V528h-5.8v-8.3h43.6v14.4h-10.2v-6h-16v13.7h17.9v8.9h-17.9v14.2h16.6l0.5-7.9
			H-737.6z"/>
		<path d="M-698.5,573.2h-23v-8.3h5.8V528h-5.8v-8.3h27.2c12.8,0,21.4,6.6,21.4,17c0,7.4-4.5,12.8-11.8,15.3l8.6,12.8h6.9v8.3h-15.3
			l-12.4-19.6h-7.2v11.2h5.7V573.2z M-704.1,528v17.3h9.2c6.2,0,10.2-2.8,10.2-8.6c0-5.7-4-8.7-10.2-8.7H-704.1z"/>
	</g>
	<g>
		<path d="M-847.2,477.1c-0.9,3.3-3.2,6.5-7.1,8.9c-8.5,5.5-16.4,4.1-21.7-4.2c-5.2-8.1-3.7-16.1,5.1-21.8c3.8-2.4,7.2-3,10.3-2.7
			l4,6.2l-4.8,3.1l-2.5-3.9c-1.3,0.2-2.6,0.7-4,1.6c-5,3.3-6,8-2.2,13.7c3.4,5.2,8.1,7.1,13.3,3.7c2.6-1.7,4.1-3.9,4.6-5.7
			L-847.2,477.1z"/>
		<path d="M-825.9,472.7l-12.3,3.7l-1.3-4.4l3.1-0.9l-5.9-19.7l-3.1,0.9l-1.3-4.4l14.5-4.3c6.9-2,12.5,0.2,14.1,5.7
			c1.2,4-0.4,7.5-3.9,10l6.6,5.5l3.7-1.1l1.3,4.4l-8.2,2.4l-9.8-8.5l-3.8,1.1l1.8,6l3-0.9L-825.9,472.7z M-836.1,449.5l2.7,9.2
			l4.9-1.5c3.3-1,5-3.1,4.1-6.2c-0.9-3.1-3.5-4-6.8-3L-836.1,449.5z"/>
		<path d="M-792.4,467.2l-12.1-0.2l0.1-4.6l3.2,0l10.7-25l6.2,0.1l10,25.3l3.2,0l-0.1,4.6l-12.1-0.2l0.1-4.6l2.4,0l-1.1-3l-11.5-0.2
			l-1.2,3l2.4,0L-792.4,467.2z M-791.7,454.9l7.9,0.1l-3.8-10.4L-791.7,454.9z"/>
		<path d="M-735,455.4l-5.5-1.7l1-3.2l-8.6-2.6l-2.7,9l9.5,2.9l-1.3,4.4l-9.5-2.9l-1.9,6.2l3,0.9l-1.3,4.4l-12.3-3.7l1.3-4.4
			l3.1,0.9l5.9-19.6l-3.1-0.9l1.3-4.4l23.3,7.1L-735,455.4z"/>
		<path d="M-697.6,467.2l-4.2,6.8l-4.9-3l1.8-2.9l-3.7-2.3l-10.7,17.5l2.7,1.7l-2.4,4l-11-6.7l2.4-4l2.7,1.7l10.8-17.5l-3.6-2.2
			l-1.8,2.9l-4.9-3l4.2-6.8L-697.6,467.2z"/>
	</g>
	<g>
		<path d="M-914.8,732l-2.2,2.8c1,1.2,2.2,2.3,3.2,3.1c2.6,2,4.9,2.6,6.5,0.6c3.5-4.5-10-10.9-4.4-18.2c3.5-4.5,8.3-3,12-0.1
			c3,2.3,5.3,5.2,6.4,7.3l-3.6,4.7l-3.7-2.8l2-2.6c-0.9-1.1-1.9-2.2-3.3-3.3c-2.2-1.7-4.1-2-5.4-0.4c-3.3,4.2,10.2,10.6,4.5,18.1
			c-3.6,4.7-8.9,3.3-13.6-0.4c-2.7-2.1-5.3-5-6.2-6.6l4-5.2L-914.8,732z"/>
		<path d="M-897.2,750.3l21-9.6l-7.3-4l-1.4,2.5l-4.3-2.4l3.3-6l17.9,9.9l-1.5,2.8l-21,9.6l8.4,4.6l1.2-2.2l4.3,2.4l-3.1,5.7
			l-18.9-10.4L-897.2,750.3z"/>
		<path d="M-861.7,770.9l-9.8-3.6l1.4-3.8l2.6,0.9l15.8-17.4l5,1.8l1,23.4l2.6,0.9l-1.4,3.8l-9.8-3.6l1.4-3.8l2,0.7l-0.1-2.8
			l-9.3-3.4l-1.8,2.1l1.9,0.7L-861.7,770.9z M-857.6,761.1l6.4,2.3l-0.2-9.6L-857.6,761.1z"/>
		<path d="M-823.9,781.1l-10.9-1.8l0.7-3.9l2.8,0.5l2.9-17.5l-2.8-0.5l0.6-3.9l12.9,2.1c6.1,1,9.6,4.8,8.8,9.8
			c-0.6,3.5-3.1,5.7-6.8,6.3l3.1,6.8l3.3,0.5l-0.7,3.9l-7.2-1.2l-4.4-10.2l-3.4-0.6l-0.9,5.3l2.7,0.4L-823.9,781.1z M-823,759.3
			l-1.4,8.2l4.3,0.7c2.9,0.5,5-0.5,5.5-3.3c0.4-2.7-1.2-4.4-4.1-4.9L-823,759.3z"/>
		<path d="M-773.5,762.2l-2.9,0l-8.3,21.8l-5.6,0.1l-8.7-21.6l-2.9,0l0-4l11.4-0.1l0,4l-2.7,0l5.6,15.7l5.4-15.8l-2.7,0l0-4
			l11.4-0.1L-773.5,762.2z"/>
		<path d="M-757.6,781.6l-10.3,1.8l-0.7-3.9l2.7-0.5l5-22.9l5.2-0.9l12.6,19.8l2.7-0.5l0.7,3.9l-10.3,1.8l-0.7-3.9l2.1-0.4l-1.4-2.4
			l-9.8,1.7l-0.5,2.7l2-0.4L-757.6,781.6z M-759,771.1l6.7-1.2l-4.9-8.2L-759,771.1z"/>
		<path d="M-728.4,766.9l1.2,3.3c1.5-0.2,3.1-0.6,4.4-1c3.1-1.1,4.8-2.8,4-5.1c-1.9-5.4-14.6,2.4-17.6-6.2c-1.9-5.4,2-8.6,6.4-10.2
			c3.5-1.2,7.2-1.7,9.6-1.4l2,5.6l-4.4,1.5l-1.1-3c-1.4,0.1-2.9,0.4-4.5,1c-2.6,0.9-3.9,2.3-3.2,4.3c1.8,5.1,14.5-2.8,17.6,6.1
			c2,5.6-2.1,9.2-7.7,11.2c-3.3,1.1-7.1,1.8-8.9,1.6l-2.2-6.2L-728.4,766.9z"/>
		<path d="M-691.7,759.3l-9.7,5.3l-1.9-3.5l2.4-1.3l-8.5-15.5l-2.4,1.3l-1.9-3.5l9.7-5.3l1.9,3.5l-2.4,1.3l4.3,7.8l3.1-11.9
			l-1.6,0.9l-1.9-3.5l9.6-5.3l1.9,3.5l-2.2,1.2l-2.8,10.2l12,4.9l2.5-1.4l1.9,3.5l-9.9,5.4l-1.9-3.5l1.5-0.8l-7.5-3l-1.5,5.6l1,1.9
			l2.4-1.3L-691.7,759.3z"/>
		<path d="M-678.3,717.7l-3.5,2.8l-0.7-7.4l4.2-3.4L-678.3,717.7z M-676.3,717.8c6.6-5.3,14-4.7,19,1.5c5,6.2,4.2,13.9-2.3,19.2
			c-6.6,5.4-14.3,4.5-19.3-1.7C-683.9,730.6-682.9,723.1-676.3,717.8z M-672.6,713l-3.5,2.9l-0.6-7.5l4.2-3.4L-672.6,713z
			 M-673.5,721.2c-3.9,3.1-3.8,7.8-0.6,11.8c3.1,3.9,7.7,5.2,11.7,2c3.9-3.1,3.7-8,0.5-12C-665.1,719.2-669.6,718.1-673.5,721.2z"/>
	</g>
	<path d="M-777.2,619c-5.7-1.3-11.8-1.9-17.6-2c-11.7-0.1-23.3,0.6-34.6,3.8c-6.7,1.9-9.6,7.8-7.2,14.1c2.6,6.8,9.6,10.9,16.7,9.1
		c3.6-0.9,7.1-2.9,10.4-4.8c3.2-1.8,6.1-4.4,9.3-6.2c6.9-3.8,14.3-4.9,22-2.6c7.1,2.1,11,8.3,9.9,15.7c-1.8,11.8-12.5,21.4-24.9,22
		c0-1.2,0-2.4,0-3.6c0.2-5.5,0.6-11,0.6-16.5c0-5.7-5.3-9.3-10.5-7.5c-3.4,1.2-5.2,4.1-5.2,8.3c0,6.8,0,13.6,0,20.3
		c-3.6,0-6.8,0.1-10.1,0c-5.2-0.2-8.9,2.7-9.2,7.3c-0.3,4.8,2.7,8,8.1,8.4c3.7,0.3,7.4,0.4,11.1,0.5c0.5,6.1,0.8,11.9,1.5,17.6
		c0.7,5.4,1.3,11,3,16.1c1.9,5.8,8.1,7.9,14.9,6.2c5.2-1.3,7.8-5.1,6.9-11.4c-0.5-3.6-2.1-7.1-3.3-10.6c-2.4-6.6-4.8-13.1-7.4-20
		c1.9-0.7,2.8-1,3.7-1.4c13.8-6,25.1-14.7,30.2-29.5C-753.8,638-762.3,622.4-777.2,619z"/>
	<path d="M-639.3,651.1c-4.1-18.6-27.3-1.1-38.9-1.8c-8.1,0.2-12.3-7.4-15.5-14.1c-4-8.8-7.2-18.1-13-25.9
		c-5.5-7.3-15.2-12.1-23.5-6.4c-15.4,11-23,43.7-20.7,61.8c1.2,13.6,9.7,18.9,22.5,20.7c8.8,1.2,18.6,0.8,26-4.6
		c9.4-6.3,7-23.8-5.7-23.3c-6.8,0.3-9.7,8-15.6,10.2c-4.4,1.8-10.2,0.1-12.7-4c-6-11.3,0.8-28.9,6.7-39.2c5.1-8.7,9.4-9.9,14.1,0.3
		c3,6.1,5.7,12.3,8.9,18.3c9,18.1,22.5,23.9,42.1,25.3c4.8,0.5,9.9,0.3,14.6-0.2c9.6-0.9,11.9-8.3,10.7-16.9L-639.3,651.1z"/>
	<path d="M-834.3,649.1c-2.5-4.9-6.5-9-11.5-11.4c-5.7-2.7-12.2-3.3-18.3-4.6c-5.7-1.1-15.7-2.4-14.3-10.4c0.8-3.7,3.7-6.8,6.9-8.7
		c3.5-2,7.8-2.3,11.9-2.8c4.2-0.6,8.3,0,12.6,0.3c3.2,0.1,6.5-0.3,8.6-2.9c3-3.5,1.9-9.4-2.5-11.3c-5.1-2.2-11.4-1.6-16.8-1.2
		c-15.3,1.5-32.8,9.8-35,26.9c-1.2,9.2,4.9,16.8,13.7,19.1c6.1,1.7,12.5,2.3,18.7,3.6c3.2,0.6,6.6,1.5,9.1,3.4
		c4.4,3.3,5.2,10.6,2.5,15.5c-3.8,6.8-13.6,5.9-19.8,2.8c-8.1-4.3-15.9-9.3-23.4-14.6c-3.6-2.5-7.2-5.1-11.1-7.1
		c-5.7-2.9-11.9-4.2-18.2-3.9c-5.9,0-11.7,3.1-14.3,8.5c-2.7,5.1-2.6,12.3,1.9,16.4c6.1,4.8,14.6,1.7,21.7,2.7
		c5.5,0.4,10.5,2.8,15.3,5.4c17.2,10.1,44.6,19.5,59.7,1.4c6-7.5,7.5-18.2,2.9-26.8L-834.3,649.1z"/>
</g>
<g>
	<g>
		<path class="st0" d="M-879.9,631.3c-10.5-8,1.5-22.7,11.9-22.6C-877.4,613.1-886.6,620.4-879.9,631.3z"/>
		<path class="st0" d="M-906.9,651.5c-7.1-4-19-9-25-0.8c-0.8,1-1,0.5-0.6-0.5C-927.8,640.5-912.1,644.3-906.9,651.5z"/>
		<path class="st0" d="M-647.2,662.9c-8.5,3.5-18.7,0.7-27.6-0.4c-1.5-0.5,0.4-0.7,1-0.6C-665,662.4-655.6,662.6-647.2,662.9z"/>
		<path class="st0" d="M-740.2,626.2c3.2-7.1,6.9-18.1,14.7-20.9C-731.6,611-734.7,620.4-740.2,626.2z"/>
		<path class="st0" d="M-720.3,680.7c5.9-3.7,14.2-4.4,18.2-10.8c0.6-0.7,0.8-0.4,0.6,0.4C-704.1,677.4-713.6,680.6-720.3,680.7z"/>
		<path class="st0" d="M-790.3,721.6c3.9-6,0.2-13.5-1.8-19.7c-0.3-0.6-0.5-2,0.5-0.9C-788.2,705.9-783.3,718.3-790.3,721.6z"/>
		<path class="st0" d="M-814.7,637c-3.8,4.1-13.9,4-16.4-0.1C-825.8,638.9-820.1,637.6-814.7,637z"/>
	</g>
	<g>
		<path class="st0" d="M-745.2,837.2c-6.1-2-3-8.3,1.2-10.8c8.5-5.5,18.7-8.8,27.9-13.1c10.2-4.5,20.2-9.4,29.7-15.1
			c40.5-24.2,69.1-59.6,88.8-101.8c2-4.1,4.3-8.1,7.3-11.1c8.6-9.3,23.9-3.4,23.1,9.4c-1,11.5-8.3,21.9-13.7,31.8
			c-24.7,40.2-59.8,72.5-103,92.5c-10.9,5.1-22.2,9-33.7,12.5c-5.7,1.7-11.4,3.6-16.9,5.1c-3.4,0.9-7.1,1.6-10.5,0.6L-745.2,837.2z"
			/>
		<circle class="st0" cx="-1132.5" cy="660.8" r="7.4"/>
		
			<ellipse transform="matrix(0.5694 -0.8221 0.8221 0.5694 -807.1815 -591.5957)" class="st0" cx="-968.3" cy="474.7" rx="73.7" ry="22.4"/>
		<circle class="st0" cx="-885" cy="393.1" r="12.5"/>
		<path class="st0" d="M-1200.1,778.3c-1-1.7,1-2.6,2.5-2.4c3.1,0.3,6.2,1.6,9.3,2.4c3.3,0.9,6.7,1.7,10.1,2.3
			c14.5,2.2,28.4-0.7,41.6-7c1.3-0.6,2.7-1.1,4-1.2c3.9-0.5,6.3,3.9,3.5,6.9c-2.6,2.6-6.4,3.6-9.7,5c-14,4.8-28.9,5.7-43.1,1.9
			c-3.6-0.9-7.1-2.2-10.5-3.7c-1.7-0.7-3.4-1.4-5-2.1C-1198.4,779.8-1199.4,779.3-1200.1,778.3L-1200.1,778.3z"/>
		<path class="st0" d="M-1152.2,378.7c0.9-1.7,2.7-0.5,3.3,0.9c1.3,2.9,1.8,6.2,2.7,9.2c0.9,3.3,1.9,6.6,3.2,9.8
			c5.5,13.6,15.1,24.1,27.3,32.2c1.2,0.8,2.3,1.7,3.1,2.8c2.5,3.1-0.1,7.4-4.1,6.5c-3.5-0.9-6.4-3.6-9.2-5.8
			c-11.3-9.6-19.6-21.9-23.7-36.1c-1-3.6-1.7-7.2-2.2-10.9c-0.3-1.8-0.6-3.7-0.7-5.4C-1152.7,380.9-1152.7,379.8-1152.2,378.7
			L-1152.2,378.7z"/>
		<g>
			<path class="st0" d="M-1245.9,622.4c-1.3-0.3-0.7-1.7,0.1-2.3c1.6-1.3,3.6-2.1,5.4-3.2c2-1.1,3.9-2.3,5.8-3.6
				c7.8-5.6,13-13.4,16.3-22.4c0.3-0.9,0.7-1.7,1.3-2.4c1.6-2.1,4.8-1.1,4.8,1.6c0,2.4-1.3,4.7-2.2,6.8
				c-4.4,8.7-10.9,15.9-19.3,20.7c-2.1,1.2-4.3,2.2-6.6,3.1c-1.1,0.4-2.2,0.9-3.3,1.3C-1244.5,622.4-1245.2,622.6-1245.9,622.4
				L-1245.9,622.4z"/>
			<path class="st0" d="M-854.5,304.2c-1.3-0.3-0.7-1.7,0.1-2.3c1.6-1.3,3.6-2.1,5.4-3.2c2-1.1,3.9-2.3,5.8-3.6
				c7.8-5.6,13-13.4,16.3-22.4c0.3-0.9,0.7-1.7,1.3-2.4c1.6-2.1,4.8-1.1,4.8,1.6c0,2.4-1.3,4.7-2.2,6.8
				c-4.4,8.7-10.9,15.9-19.3,20.7c-2.1,1.2-4.3,2.2-6.6,3.1c-1.1,0.4-2.2,0.9-3.3,1.3C-853,304.2-853.8,304.4-854.5,304.2
				L-854.5,304.2z"/>
			<path class="st0" d="M-590.2,366c-0.9-0.2-0.5-1.2,0-1.6c1.1-0.9,2.6-1.5,3.8-2.2c1.4-0.8,2.8-1.6,4-2.5c5.5-4,9.1-9.4,11.4-15.7
				c0.2-0.6,0.5-1.2,0.9-1.7c1.1-1.4,3.3-0.8,3.4,1.1c0,1.7-0.9,3.3-1.6,4.8c-3.1,6.1-7.7,11.2-13.5,14.5c-1.5,0.9-3,1.5-4.6,2.2
				c-0.8,0.3-1.6,0.6-2.3,0.9C-589.2,366-589.7,366.1-590.2,366L-590.2,366z"/>
			<path class="st0" d="M-512.5,345.8c1.3,0.3,0.7,1.7-0.1,2.3c-1.6,1.3-3.6,2.1-5.4,3.2c-2,1.1-3.9,2.2-5.8,3.6
				c-7.8,5.6-13,13.4-16.3,22.4c-0.3,0.9-0.7,1.7-1.3,2.4c-1.6,2.1-4.8,1.1-4.8-1.6c0-2.4,1.3-4.7,2.3-6.8
				c4.4-8.7,10.9-15.9,19.3-20.7c2.1-1.2,4.3-2.2,6.6-3.1c1.1-0.4,2.2-0.9,3.3-1.3C-514,345.8-513.3,345.6-512.5,345.8L-512.5,345.8
				z"/>
			<path class="st0" d="M-405.7,541.2c1.1,0.7,0.1,1.8-0.8,2.1c-2,0.7-4.1,0.8-6.2,1.2c-2.2,0.4-4.5,0.8-6.6,1.5
				c-9.2,2.7-16.7,8.3-22.8,15.8c-0.6,0.7-1.3,1.4-2,1.8c-2.2,1.4-4.9-0.6-4-3.1c0.8-2.2,2.8-4,4.4-5.7c7-6.8,15.6-11.4,25.1-13.1
				c2.4-0.4,4.8-0.6,7.3-0.7c1.2,0,2.4-0.1,3.6-0.1C-407.1,540.7-406.3,540.8-405.7,541.2L-405.7,541.2z"/>
			<path class="st0" d="M-280.2,615.4c-1.2-0.4-0.7-1.7,0.2-2.3c1.7-1.2,3.7-2,5.5-2.9c2-1,4-2.1,5.9-3.4c8-5.3,13.5-12.9,17.2-21.8
				c0.4-0.9,0.8-1.7,1.4-2.3c1.7-2,4.8-0.9,4.7,1.8c-0.1,2.4-1.5,4.6-2.5,6.7c-4.7,8.5-11.6,15.5-20.2,19.9c-2.2,1.1-4.4,2-6.7,2.8
				c-1.1,0.4-2.3,0.8-3.4,1.2C-278.7,615.4-279.4,615.6-280.2,615.4L-280.2,615.4z"/>
			<circle class="st0" cx="-1260.5" cy="535.2" r="4.2"/>
			<path class="st0" d="M-598.5,901.4c1.3,0.2,0.9,1.6,0.1,2.3c-1.5,1.4-3.4,2.4-5.1,3.6c-1.9,1.3-3.7,2.6-5.4,4.1
				c-7.2,6.3-11.7,14.6-14.2,23.9c-0.3,0.9-0.6,1.8-1.1,2.5c-1.4,2.2-4.6,1.5-4.9-1.1c-0.2-2.4,0.9-4.8,1.6-7
				c3.5-9.1,9.4-16.9,17.3-22.4c2-1.4,4.1-2.6,6.3-3.7c1.1-0.5,2.2-1.1,3.2-1.6C-600,901.6-599.3,901.3-598.5,901.4L-598.5,901.4z"
				/>
			<path class="st0" d="M-957.3,943.8c-1.2-0.4-0.6-1.7,0.2-2.2c1.7-1.1,3.8-1.8,5.7-2.7c2.1-0.9,4.1-1.9,6-3.1
				c8.2-5,14.1-12.3,18.1-21c0.4-0.8,0.9-1.7,1.5-2.3c1.7-1.9,4.8-0.7,4.7,2c-0.2,2.4-1.7,4.5-2.8,6.6c-5.1,8.3-12.2,15-21,19.1
				c-2.2,1-4.5,1.8-6.8,2.6c-1.1,0.4-2.3,0.7-3.4,1C-955.8,943.8-956.5,944-957.3,943.8L-957.3,943.8z"/>
			<path class="st0" d="M-403.9,795c-0.6,0.9-1.5,1.5-2.5,2c-1.6,0.8-3.2,1.6-4.9,2.3c-3.3,1.6-6.7,3-10.2,4.1
				c-14,4.4-28.8,4.3-42.9,0.2c-3.3-1.2-7.2-2.1-9.9-4.5c-2.9-2.8-0.7-7.3,3.2-7c1.3,0.1,2.7,0.5,4,1c13.4,5.6,27.4,7.8,41.7,4.9
				c3.4-0.7,6.7-1.6,9.9-2.7c3-0.9,6-2.3,9.1-2.8C-404.9,792.4-402.9,793.2-403.9,795L-403.9,795z"/>
			<circle class="st0" cx="-970.1" cy="857.7" r="4.9"/>
			<circle class="st0" cx="-473.7" cy="675.1" r="7.4"/>
		</g>
		<path class="st0" d="M-1140.7,507.9c-2.4-1.7-7.2,0.9-10.8,5.9c-3.6,5-4.6,10.4-2.2,12.1c2.4,1.7,7.2-0.9,10.8-5.9
			C-1139.3,515-1138.3,509.6-1140.7,507.9z"/>
		<path class="st0" d="M-780,281.7c2.6,1.4,7-1.8,10-7.2c3-5.4,3.3-10.9,0.7-12.3c-2.6-1.4-7,1.8-10,7.2
			C-782.3,274.8-782.6,280.3-780,281.7z"/>
		<path class="st0" d="M-453,441.3c2.6,1.4,7-1.8,10-7.2c3-5.4,3.3-10.9,0.7-12.3c-2.6-1.4-7,1.8-10,7.2
			C-455.3,434.4-455.6,439.9-453,441.3z"/>
		<path class="st0" d="M-333.9,346.2c-3.6-5-8.4-7.6-10.8-5.9c-2.4,1.7-1.4,7.1,2.2,12.1c3.6,5,8.4,7.6,10.8,5.9
			C-329.4,356.6-330.3,351.2-333.9,346.2z"/>
		<path class="st0" d="M-807.4,925.6c-3.8-4.8-8.7-7.3-11-5.5c-2.3,1.8-1.1,7.2,2.6,12c3.8,4.8,8.7,7.3,11,5.5
			C-802.5,935.8-803.7,930.5-807.4,925.6z"/>
		<path class="st0" d="M-553.3,849.1c2.4-5.7,2.1-11.2-0.6-12.3c-2.7-1.1-6.8,2.5-9.2,8.2c-2.4,5.7-2.1,11.2,0.6,12.3
			C-559.8,858.4-555.7,854.7-553.3,849.1z"/>
	</g>
</g>
<rect x="-1359.4" y="15.1" class="st1" width="155.5" height="155.5"/>
<rect x="-1348.5" y="110.9" style="fill:none;" width="75.6" height="50.8"/>
<text transform="matrix(1 0 0 1 -1348.5067 117.3849)"><tspan x="0" y="0" style="font-family:'YorktenSlab-ExtExB'; font-size:9px;">CMYK: </tspan><tspan x="0" y="10.8" style="font-family:'YorktenSlab-ExtExB'; font-size:9px;">0:40:100:0</tspan><tspan x="0" y="32.4" style="font-family:'YorktenSlab-ExtExB'; font-size:9px;">RGB:</tspan><tspan x="0" y="43.2" style="font-family:'YorktenSlab-ExtExB'; font-size:9px;">250:166:26</tspan></text>
<g>
	<circle class="st1" cx="584.6" cy="602.8" r="262.1"/>
	<circle class="st1" cx="309.2" cy="209.8" r="30.7"/>
	<circle class="st1" cx="579.9" cy="195.8" r="24.8"/>
	<circle class="st1" cx="678.9" cy="245.4" r="24.8"/>
	<circle class="st1" cx="556.6" cy="107.7" r="24.8"/>
	<circle class="st1" cx="749" cy="129.4" r="24.8"/>
	<circle class="st1" cx="886.8" cy="518.2" r="24.8"/>
	<circle class="st1" cx="958.1" cy="840.4" r="24.8"/>
	<circle class="st1" cx="673.7" cy="931.5" r="24.8"/>
	<circle class="st1" cx="614.5" cy="1011.8" r="21.5"/>
	<circle class="st1" cx="522.3" cy="1080.3" r="24.8"/>
	<circle class="st1" cx="494.3" cy="903.5" r="24.8"/>
	<circle class="st1" cx="202" cy="600" r="24.8"/>
	<circle class="st1" cx="289.9" cy="878.7" r="24.8"/>
	<circle class="st1" cx="843" cy="282.1" r="30.7"/>
	<circle class="st1" cx="710.8" cy="1090.6" r="30.7"/>
	<circle class="st1" cx="207.8" cy="720.2" r="81.4"/>
	<circle class="st1" cx="104.9" cy="496.7" r="30.7"/>
	<circle class="st1" cx="147.4" cy="438.4" r="14"/>
	<circle class="st1" cx="202.5" cy="240.5" r="14"/>
	<circle class="st1" cx="378.9" cy="223.7" r="14"/>
	<circle class="st1" cx="419.3" cy="92.9" r="14"/>
	<circle class="st1" cx="730.8" cy="209.8" r="14"/>
	<circle class="st1" cx="728.6" cy="282.1" r="14"/>
	<circle class="st1" cx="766.1" cy="256.2" r="17.4"/>
	<circle class="st1" cx="889.2" cy="198.3" r="14"/>
	<circle class="st1" cx="920.2" cy="274.9" r="14"/>
	<circle class="st1" cx="1036.8" cy="493.9" r="14"/>
	<circle class="st1" cx="899.1" cy="618.6" r="14"/>
	<circle class="st1" cx="1066.5" cy="727" r="14"/>
	<circle class="st1" cx="927.1" cy="879.2" r="14"/>
	<circle class="st1" cx="623.8" cy="899.7" r="14"/>
	<circle class="st1" cx="603.6" cy="1085.8" r="14"/>
	<circle class="st1" cx="508.3" cy="1006.7" r="14"/>
	<circle class="st1" cx="188.1" cy="885.7" r="14"/>
	<circle class="st1" cx="394.9" cy="836.3" r="14"/>
	<circle class="st1" cx="297.3" cy="773" r="14"/>
	<circle class="st1" cx="276" cy="634.7" r="14"/>
	<circle class="st1" cx="315.1" cy="476" r="14"/>
	<circle class="st1" cx="265.3" cy="482.7" r="14"/>
	<circle class="st1" cx="429" cy="273.8" r="14"/>
	<path class="st1" d="M130.5,653.4c0.9,1.1,1.5,2.5,1.5,4c0,3.4-2.8,6.2-6.2,6.2c-3.4,0-6.2-2.8-6.2-6.2c0-2.6,1.7-4.9,4-5.8
		c-7.7,0-13.9,6.3-13.9,14c0,7.7,6.3,14,14,14s14-6.3,14-14C137.7,660.4,134.8,655.8,130.5,653.4z"/>
	<path class="st1" d="M188.7,470.5c0.9,1.1,1.5,2.5,1.5,4c0,3.4-2.8,6.2-6.2,6.2c-3.4,0-6.2-2.8-6.2-6.2c0-2.6,1.7-4.9,4-5.8
		c-7.7,0-13.9,6.3-13.9,14c0,7.7,6.3,14,14,14s14-6.3,14-14C195.9,477.4,193,472.9,188.7,470.5z"/>
	<path class="st1" d="M127.1,333.7c0.9,1.1,1.5,2.5,1.5,4c0,3.4-2.8,6.2-6.2,6.2c-3.4,0-6.2-2.8-6.2-6.2c0-2.6,1.7-4.9,4-5.8
		c-7.7,0-13.9,6.3-13.9,14c0,7.7,6.3,14,14,14s14-6.3,14-14C134.4,340.7,131.4,336.1,127.1,333.7z"/>
	<path class="st1" d="M324.7,730.4c0.9,1.1,1.5,2.5,1.5,4c0,3.4-2.8,6.2-6.2,6.2c-3.4,0-6.2-2.8-6.2-6.2c0-2.6,1.7-4.9,4-5.8
		c-7.7,0-13.9,6.3-13.9,14c0,7.7,6.3,14,14,14c7.7,0,14-6.3,14-14C331.9,737.3,329,732.7,324.7,730.4z"/>
	<path class="st1" d="M351.8,822.5c1.4-0.4,2.9-0.3,4.3,0.3c3.1,1.4,4.4,5.1,3,8.2c-1.4,3.1-5.1,4.4-8.2,3c-2.4-1.1-3.7-3.6-3.5-6.1
		c-3.2,7-0.2,15.3,6.7,18.5c7,3.3,15.3,0.3,18.6-6.7c3.3-7,0.3-15.3-6.7-18.6C361.1,818.9,355.7,819.6,351.8,822.5z"/>
	<path class="st1" d="M485.6,942.3c0.4,1.4,0.2,2.9-0.5,4.3c-1.5,3-5.3,4.3-8.3,2.7c-3-1.5-4.3-5.3-2.7-8.3c1.2-2.4,3.7-3.6,6.2-3.3
		c-6.9-3.5-15.3-0.7-18.7,6.2c-3.5,6.9-0.7,15.3,6.1,18.8s15.3,0.7,18.8-6.1C488.9,951.7,488.4,946.3,485.6,942.3z"/>
	<path class="st1" d="M739.1,909.6c0.4,1.4,0.2,2.9-0.5,4.3c-1.5,3-5.3,4.3-8.3,2.7c-3-1.5-4.3-5.3-2.7-8.3c1.2-2.4,3.7-3.6,6.2-3.3
		c-6.9-3.5-15.3-0.7-18.7,6.2c-3.5,6.9-0.7,15.3,6.1,18.8c6.9,3.5,15.3,0.7,18.8-6.1C742.4,919.1,741.9,913.7,739.1,909.6z"/>
	<path class="st1" d="M447.4,983.9c1.4,0.3,2.7,1.1,3.6,2.4c2,2.8,1.4,6.6-1.4,8.6c-2.8,2-6.6,1.4-8.6-1.4c-1.6-2.1-1.5-4.9-0.1-7
		c-6.2,4.5-7.6,13.2-3.1,19.5c4.5,6.3,13.3,7.7,19.5,3.1c6.3-4.5,7.7-13.3,3.1-19.5C457.4,985.3,452.3,983.3,447.4,983.9z"/>
	<path class="st1" d="M683.1,985.2c1.4,0.3,2.7,1.1,3.6,2.4c2,2.8,1.4,6.6-1.4,8.6c-2.8,2-6.6,1.4-8.6-1.4c-1.6-2.1-1.5-4.9-0.1-7
		c-6.2,4.5-7.6,13.2-3.1,19.5c4.5,6.3,13.3,7.7,19.5,3.1c6.3-4.5,7.7-13.3,3.1-19.5C693,986.6,688,984.6,683.1,985.2z"/>
	<path class="st1" d="M720.9,865.1c1.4,0.3,2.7,1.1,3.6,2.4c2,2.8,1.4,6.6-1.4,8.6c-2.8,2-6.6,1.4-8.6-1.4c-1.6-2.1-1.5-4.9-0.1-7
		c-6.2,4.5-7.6,13.2-3.1,19.5c4.5,6.3,13.3,7.7,19.5,3.1c6.3-4.5,7.7-13.3,3.1-19.5C730.8,866.5,725.8,864.5,720.9,865.1z"/>
	<path class="st1" d="M848.7,1019.3c1.4,0.3,2.7,1.1,3.6,2.4c2,2.8,1.4,6.6-1.4,8.6c-2.8,2-6.6,1.4-8.6-1.4c-1.6-2.1-1.5-4.9-0.1-7
		c-6.2,4.5-7.6,13.2-3.1,19.5c4.5,6.3,13.3,7.7,19.5,3.1c6.3-4.5,7.7-13.3,3.1-19.5C858.6,1020.7,853.5,1018.7,848.7,1019.3z"/>
	<path class="st1" d="M954.7,960.2c1.4,0.3,2.7,1.1,3.6,2.4c2,2.8,1.4,6.6-1.4,8.6c-2.8,2-6.6,1.4-8.6-1.4c-1.6-2.1-1.5-4.9-0.1-7
		c-6.2,4.5-7.6,13.2-3.1,19.5c4.5,6.3,13.3,7.7,19.5,3.1c6.3-4.5,7.7-13.3,3.1-19.5C964.7,961.6,959.6,959.6,954.7,960.2z"/>
	<path class="st1" d="M1047.1,652.9c1.4,0.3,2.7,1.1,3.6,2.4c2,2.8,1.4,6.6-1.4,8.6c-2.8,2-6.6,1.4-8.6-1.4c-1.6-2.1-1.5-4.9-0.1-7
		c-6.2,4.5-7.6,13.2-3.1,19.5c4.5,6.3,13.3,7.7,19.5,3.1c6.3-4.5,7.7-13.3,3.1-19.5C1057.1,654.3,1052,652.3,1047.1,652.9z"/>
	<path class="st1" d="M877,449.6c1.4-0.1,2.9,0.2,4.2,1.1c2.8,2,3.4,5.9,1.4,8.6c-2,2.8-5.9,3.4-8.6,1.4c-2.1-1.6-3-4.2-2.3-6.6
		c-4.5,6.3-3.1,15,3.2,19.5c6.3,4.5,15,3.1,19.5-3.2c4.5-6.3,3.1-15-3.2-19.5C886.9,447.8,881.4,447.5,877,449.6z"/>
	<path class="st1" d="M1039.1,423.7c0.3,1.4,0.1,2.9-0.7,4.3c-1.7,3-5.5,4-8.4,2.3c-3-1.7-4-5.5-2.3-8.4c1.3-2.3,3.9-3.4,6.4-3
		c-6.7-3.8-15.2-1.5-19,5.2c-3.9,6.7-1.6,15.2,5.1,19.1c6.7,3.9,15.2,1.6,19.1-5.1C1041.9,433.3,1041.7,427.9,1039.1,423.7z"/>
	<path class="st1" d="M960.6,497c0.3,1.4,0.1,2.9-0.7,4.3c-1.7,3-5.5,4-8.4,2.3c-3-1.7-4-5.5-2.3-8.4c1.3-2.3,3.9-3.4,6.4-3
		c-6.7-3.8-15.2-1.5-19,5.2c-3.9,6.7-1.6,15.2,5.1,19.1s15.2,1.6,19.1-5.1C963.4,506.6,963.1,501.2,960.6,497z"/>
	<path class="st1" d="M818.1,393.7c0.3,1.4,0.1,2.9-0.7,4.3c-1.7,3-5.5,4-8.4,2.3c-3-1.7-4-5.5-2.3-8.4c1.3-2.3,3.9-3.4,6.4-3
		c-6.7-3.8-15.2-1.5-19,5.2c-3.9,6.7-1.6,15.2,5.1,19.1s15.2,1.6,19.1-5.1C820.9,403.4,820.6,397.9,818.1,393.7z"/>
	<path class="st1" d="M715.7,320.1c0.3,1.4,0.1,2.9-0.7,4.3c-1.7,3-5.5,4-8.4,2.3c-3-1.7-4-5.5-2.3-8.4c1.3-2.3,3.9-3.4,6.4-3
		c-6.7-3.8-15.2-1.5-19,5.2c-3.9,6.7-1.6,15.2,5.1,19.1s15.2,1.6,19.1-5.1C718.5,329.8,718.2,324.3,715.7,320.1z"/>
	<path class="st1" d="M676,294.2c0,1.4-0.4,2.9-1.4,4.1c-2.2,2.6-6.1,3-8.7,0.9c-2.6-2.2-3-6.1-0.9-8.7c1.7-2,4.4-2.7,6.8-1.9
		c-6-4.9-14.7-4-19.6,2c-4.9,6-4,14.8,2,19.7c6,4.9,14.8,4,19.7-2C677.2,304.2,677.8,298.8,676,294.2z"/>
	<path class="st1" d="M650.3,149.1c0,1.4-0.4,2.9-1.4,4.1c-2.2,2.6-6.1,3-8.7,0.9c-2.6-2.2-3-6.1-0.9-8.7c1.7-2,4.4-2.7,6.8-1.9
		c-6-4.9-14.7-4-19.6,2c-4.9,6-4,14.8,2,19.7c6,4.9,14.8,4,19.7-2C651.5,159,652.1,153.6,650.3,149.1z"/>
	<path class="st1" d="M461.6,226.2c0,1.4-0.4,2.9-1.4,4.1c-2.2,2.6-6.1,3-8.7,0.9c-2.6-2.2-3-6.1-0.9-8.7c1.7-2,4.4-2.7,6.8-1.9
		c-6-4.9-14.7-4-19.6,2c-4.9,6-4,14.8,2,19.7s14.8,4,19.7-2C462.8,236.2,463.4,230.8,461.6,226.2z"/>
	<path class="st1" d="M342.2,292.7c1.4-0.2,2.9,0.1,4.2,0.9c2.9,1.9,3.7,5.7,1.8,8.5c-1.9,2.9-5.7,3.7-8.5,1.8
		c-2.2-1.4-3.2-4.1-2.6-6.5c-4.2,6.5-2.3,15.1,4.1,19.3c6.5,4.2,15.1,2.4,19.3-4.1c4.2-6.5,2.4-15.1-4.1-19.3
		C352,290.4,346.5,290.4,342.2,292.7z"/>
	<path class="st1" d="M1115.4,708.6c-1.4-0.4-2.7-1.2-3.5-2.5c-1.9-2.8-1.2-6.7,1.7-8.6c2.8-1.9,6.7-1.2,8.6,1.7
		c1.5,2.2,1.3,5-0.1,7c6.4-4.3,8-13,3.7-19.4c-4.3-6.4-13-8.1-19.4-3.8c-6.4,4.3-8.1,13-3.8,19.4
		C1105.5,706.9,1110.5,709.1,1115.4,708.6z"/>
	<path class="st1" d="M246.5,981.5c1.4,0.3,2.7,1.1,3.6,2.4c2,2.8,1.4,6.6-1.4,8.6c-2.8,2-6.6,1.4-8.6-1.4c-1.5-2.2-1.5-5-0.1-7
		c-6.2,4.5-7.7,13.2-3.2,19.5c4.5,6.3,13.2,7.7,19.5,3.2c6.3-4.5,7.7-13.2,3.2-19.5C256.5,982.9,251.4,980.9,246.5,981.5z"/>
	<path class="st1" d="M394.3,1087.8c-1.4-0.4-2.6-1.3-3.4-2.6c-1.8-2.9-0.9-6.7,2-8.5c2.9-1.8,6.7-0.9,8.5,2c1.4,2.3,1.1,5-0.4,7
		c6.5-4.1,8.6-12.6,4.5-19.2c-4-6.6-12.7-8.6-19.2-4.6c-6.6,4-8.6,12.7-4.6,19.2C384.4,1085.7,389.3,1088.1,394.3,1087.8z"/>
	<path class="st1" d="M258.3,586.3c0,1.4-0.4,2.9-1.5,4.1c-2.2,2.6-6.1,2.9-8.7,0.7c-2.6-2.2-2.9-6.1-0.7-8.7c1.7-2,4.5-2.6,6.8-1.8
		c-5.9-5-14.7-4.3-19.7,1.6c-5,5.9-4.3,14.7,1.5,19.7c5.9,5,14.7,4.3,19.7-1.5C259.3,596.2,260,590.9,258.3,586.3z"/>
	<path class="st1" d="M143.6,505.7c1.4,0.2,2.8,0.9,3.7,2.1c2.2,2.6,1.8,6.5-0.8,8.7c-2.6,2.2-6.5,1.8-8.7-0.8c-1.7-2-1.8-4.8-0.6-7
		c-5.9,4.9-6.8,13.7-1.9,19.6c4.9,6,13.7,6.8,19.7,1.9c6-4.9,6.8-13.7,1.9-19.7C153.6,506.4,148.4,504.8,143.6,505.7z"/>
	<path class="st1" d="M240.3,496.7c-17,0-30.7,13.7-30.7,30.7c0,17,13.7,30.7,30.7,30.7c17,0,30.7-13.7,30.7-30.7
		C271,510.4,257.3,496.7,240.3,496.7z M230,520c-3.6,5-8.4,7.6-10.8,5.9c-2.4-1.7-1.4-7.1,2.2-12.1c3.6-5,8.4-7.6,10.8-5.9
		C234.6,509.6,233.6,515,230,520z"/>
	<path class="st1" d="M327.6,905.5c-17,0-30.7,13.7-30.7,30.7c0,17,13.7,30.7,30.7,30.7c17,0,30.7-13.7,30.7-30.7
		C358.3,919.2,344.5,905.5,327.6,905.5z M317.2,928.7c-3.6,5-8.4,7.6-10.8,5.9c-2.4-1.7-1.4-7.1,2.2-12.1c3.6-5,8.4-7.6,10.8-5.9
		C321.8,918.4,320.8,923.8,317.2,928.7z"/>
	<path class="st1" d="M576.6,948.6c4.7-16.3-4.7-33.3-21-38c-16.3-4.7-33.3,4.7-38,21c-4.7,16.3,4.7,33.3,21,38
		C554.8,974.2,571.9,964.8,576.6,948.6z M557.1,932.1c-3.8-4.8-4.9-10.2-2.6-12c2.3-1.8,7.2,0.7,11,5.5c3.8,4.8,4.9,10.2,2.6,12
		S560.8,937,557.1,932.1z"/>
	<path class="st1" d="M824.2,824c-16.5,3.9-26.7,20.4-22.8,36.9c3.9,16.5,20.4,26.7,36.9,22.8c16.5-3.9,26.7-20.4,22.8-36.9
		C857.3,830.3,840.7,820.1,824.2,824z M819.5,849.1c-2.4,5.7-6.5,9.3-9.2,8.2c-2.7-1.1-3-6.6-0.6-12.3c2.4-5.7,6.5-9.3,9.2-8.2
		C821.6,837.9,821.9,843.4,819.5,849.1z"/>
	<path class="st1" d="M937.2,409.8c-16.8,2.1-28.8,17.4-26.7,34.2c2.1,16.8,17.4,28.8,34.2,26.7c16.8-2.1,28.8-17.4,26.7-34.2
		C969.4,419.7,954,407.7,937.2,409.8z M929.8,434.2c-3,5.4-7.4,8.6-10,7.2c-2.6-1.4-2.3-6.9,0.7-12.3c3-5.4,7.4-8.6,10-7.2
		C933.1,423.3,932.8,428.8,929.8,434.2z"/>
	<path class="st1" d="M1049.2,369.6c5.3-16.1-3.4-33.5-19.5-38.8c-16.1-5.3-33.5,3.4-38.8,19.5c-5.3,16.1,3.4,33.5,19.5,38.8
		C1026.5,394.4,1043.9,385.7,1049.2,369.6z M1030.3,352.4c-3.6-5-4.6-10.4-2.2-12.1c2.4-1.7,7.2,0.9,10.8,5.9
		c3.6,5,4.6,10.4,2.2,12.1C1038.7,360,1033.9,357.4,1030.3,352.4z"/>
	<path class="st1" d="M610.2,250.2c-16.8,2.1-28.8,17.4-26.7,34.2c2.1,16.8,17.4,28.8,34.2,26.7c16.8-2.1,28.8-17.4,26.7-34.2
		C642.4,260,627,248.1,610.2,250.2z M602.8,274.6c-3,5.4-7.4,8.6-10,7.2c-2.6-1.4-2.3-6.9,0.7-12.3c3-5.4,7.4-8.6,10-7.2
		C606.1,263.7,605.8,269.2,602.8,274.6z"/>
	<path class="st1" d="M417.6,296.7c-17,0.1-30.6,13.9-30.5,30.9c0.1,17,13.9,30.6,30.9,30.5c17-0.1,30.6-13.9,30.5-30.9
		C448.4,310.2,434.6,296.6,417.6,296.7z M407.4,320c-3.6,5-8.4,7.6-10.8,5.9c-2.4-1.7-1.4-7.1,2.1-12.1c3.6-5,8.4-7.6,10.8-5.9
		C411.9,309.6,411,315,407.4,320z"/>
	<circle class="st1" cx="116.6" cy="579.1" r="53.5"/>
	<circle class="st1" cx="508" cy="260.9" r="53.5"/>
	<circle class="st1" cx="775.4" cy="335.6" r="37.5"/>
	<circle class="st1" cx="870.7" cy="389.1" r="53.5"/>
	<circle class="st1" cx="962.6" cy="585.5" r="53.5"/>
	<circle class="st1" cx="1084.1" cy="571.7" r="53.5"/>
	<circle class="st1" cx="288.5" cy="379.1" r="81.4"/>
	<circle class="st1" cx="788.7" cy="943.6" r="53.5"/>
	<circle class="st1" cx="408.9" cy="899.7" r="53.5"/>
	<circle class="st1" cx="932.3" cy="733.4" r="80.9"/>
</g>
<g>
	<g>
		<path d="M465.5,564.8h5.8V528h-5.8v-8.3h25.8c11.5,0,18.9,5.5,18.9,13.4c0,6-2.9,9.7-7.8,11.8c7.5,1.8,12,5.7,12,12.5
			c0,9.1-8.2,15.8-20.7,15.8h-28.2V564.8z M482.9,528v13.2h6.1c5.8,0,9.2-2.2,9.2-6.5c0-4.2-3.4-6.7-9.2-6.7H482.9z M482.9,549.2
			v15.7h8.3c7.6,0,10.8-3.5,10.8-8s-3.1-7.6-11-7.6H482.9z"/>
		<path d="M574.6,556.9l-0.8,16.3H530v-8.3h5.8V528H530v-8.3h43.6v14.4h-10.2v-6h-16v13.7h17.9v8.9h-17.9v14.2h16.6l0.5-7.9H574.6z"
			/>
		<path d="M635.3,556.9l-0.8,16.3h-43.8v-8.3h5.8V528h-5.8v-8.3h43.6v14.4h-10.2v-6h-16v13.7h17.9v8.9H608v14.2h16.6l0.5-7.9H635.3z
			"/>
		<path d="M674.4,573.2h-23v-8.3h5.8V528h-5.8v-8.3h27.2c12.8,0,21.4,6.6,21.4,17c0,7.4-4.5,12.8-11.8,15.3l8.6,12.8h6.9v8.3h-15.3
			l-12.4-19.6h-7.2v11.2h5.7V573.2z M668.8,528v17.3h9.2c6.2,0,10.2-2.8,10.2-8.6c0-5.7-4-8.7-10.2-8.7H668.8z"/>
	</g>
	<g>
		<path d="M525.7,477.1c-0.9,3.3-3.2,6.5-7.1,8.9c-8.5,5.5-16.4,4.1-21.7-4.2c-5.2-8.1-3.7-16.1,5.1-21.8c3.8-2.4,7.2-3,10.3-2.7
			l4,6.2l-4.8,3.1l-2.5-3.9c-1.3,0.2-2.6,0.7-4,1.6c-5,3.3-6,8-2.2,13.7c3.4,5.2,8.1,7.1,13.3,3.7c2.6-1.7,4.1-3.9,4.6-5.7
			L525.7,477.1z"/>
		<path d="M547,472.7l-12.3,3.7l-1.3-4.4l3.1-0.9l-5.9-19.7l-3.1,0.9l-1.3-4.4l14.5-4.3c6.9-2,12.5,0.2,14.1,5.7
			c1.2,4-0.4,7.5-3.9,10l6.6,5.5l3.7-1.1l1.3,4.4l-8.2,2.4l-9.8-8.5l-3.8,1.1l1.8,6l3-0.9L547,472.7z M536.8,449.5l2.7,9.2l4.9-1.5
			c3.3-1,5-3.1,4.1-6.2c-0.9-3.1-3.5-4-6.8-3L536.8,449.5z"/>
		<path d="M580.4,467.2l-12.1-0.2l0.1-4.6l3.2,0l10.7-25l6.2,0.1l10,25.3l3.2,0l-0.1,4.6l-12.1-0.2l0.1-4.6l2.4,0l-1.1-3l-11.5-0.2
			l-1.2,3l2.4,0L580.4,467.2z M581.1,454.9l7.9,0.1l-3.8-10.4L581.1,454.9z"/>
		<path d="M637.8,455.4l-5.5-1.7l1-3.2l-8.6-2.6l-2.7,9l9.5,2.9l-1.3,4.4l-9.5-2.9l-1.9,6.2l3,0.9l-1.3,4.4l-12.3-3.7l1.3-4.4
			l3.1,0.9l5.9-19.6l-3.1-0.9l1.3-4.4l23.3,7.1L637.8,455.4z"/>
		<path d="M675.3,467.2l-4.2,6.8l-4.9-3l1.8-2.9l-3.7-2.3l-10.7,17.5l2.7,1.7l-2.4,4l-11-6.7l2.4-4l2.7,1.7l10.8-17.5l-3.6-2.2
			l-1.8,2.9l-4.9-3l4.2-6.8L675.3,467.2z"/>
	</g>
	<g>
		<path d="M458,732l-2.2,2.8c1,1.2,2.2,2.3,3.2,3.1c2.6,2,4.9,2.6,6.5,0.6c3.5-4.5-10-10.9-4.4-18.2c3.5-4.5,8.3-3,12-0.1
			c3,2.3,5.3,5.2,6.4,7.3l-3.6,4.7l-3.7-2.8l2-2.6c-0.9-1.1-1.9-2.2-3.3-3.3c-2.2-1.7-4.1-2-5.4-0.4c-3.3,4.2,10.2,10.6,4.5,18.1
			c-3.6,4.7-8.9,3.3-13.6-0.4c-2.7-2.1-5.3-5-6.2-6.6l4-5.2L458,732z"/>
		<path d="M475.7,750.3l21-9.6l-7.3-4l-1.4,2.5l-4.3-2.4l3.3-6l17.9,9.9l-1.5,2.8l-21,9.6l8.4,4.6l1.2-2.2l4.3,2.4l-3.1,5.7
			L474.2,753L475.7,750.3z"/>
		<path d="M511.2,770.9l-9.8-3.6l1.4-3.8l2.6,0.9l15.8-17.4l5,1.8l1,23.4l2.6,0.9l-1.4,3.8l-9.8-3.6l1.4-3.8l2,0.7l-0.1-2.8
			l-9.3-3.4l-1.8,2.1l1.9,0.7L511.2,770.9z M515.3,761.1l6.4,2.3l-0.2-9.6L515.3,761.1z"/>
		<path d="M549,781.1l-10.9-1.8l0.7-3.9l2.8,0.5l2.9-17.5l-2.8-0.5l0.6-3.9l12.9,2.1c6.1,1,9.6,4.8,8.8,9.8
			c-0.6,3.5-3.1,5.7-6.8,6.3l3.1,6.8l3.3,0.5l-0.7,3.9l-7.2-1.2l-4.4-10.2l-3.4-0.6l-0.9,5.3l2.7,0.4L549,781.1z M549.9,759.3
			l-1.4,8.2l4.3,0.7c2.9,0.5,5-0.5,5.5-3.3c0.4-2.7-1.2-4.4-4.1-4.9L549.9,759.3z"/>
		<path d="M599.4,762.2l-2.9,0l-8.3,21.8l-5.6,0.1l-8.7-21.6l-2.9,0l0-4l11.4-0.1l0,4l-2.7,0l5.6,15.7l5.4-15.8l-2.7,0l0-4l11.4-0.1
			L599.4,762.2z"/>
		<path d="M615.2,781.6l-10.3,1.8l-0.7-3.9l2.7-0.5l5-22.9l5.2-0.9l12.6,19.8l2.7-0.5l0.7,3.9l-10.3,1.8l-0.7-3.9l2.1-0.4l-1.4-2.4
			l-9.8,1.7l-0.5,2.7l2-0.4L615.2,781.6z M613.9,771.1l6.7-1.2l-4.9-8.2L613.9,771.1z"/>
		<path d="M644.5,766.9l1.2,3.3c1.5-0.2,3.1-0.6,4.4-1c3.1-1.1,4.8-2.8,4-5.1c-1.9-5.4-14.6,2.4-17.6-6.2c-1.9-5.4,2-8.6,6.4-10.2
			c3.5-1.2,7.2-1.7,9.6-1.4l2,5.6l-4.4,1.5l-1.1-3c-1.4,0.1-2.9,0.4-4.5,1c-2.6,0.9-3.9,2.3-3.2,4.3c1.8,5.1,14.5-2.8,17.6,6.1
			c2,5.6-2.1,9.2-7.7,11.2c-3.3,1.1-7.1,1.8-8.9,1.6l-2.2-6.2L644.5,766.9z"/>
		<path d="M681.2,759.3l-9.7,5.3l-1.9-3.5l2.4-1.3l-8.5-15.5l-2.4,1.3l-1.9-3.5l9.7-5.3l1.9,3.5l-2.4,1.3l4.3,7.8l3.1-11.9l-1.6,0.9
			l-1.9-3.5l9.6-5.3l1.9,3.5l-2.2,1.2l-2.8,10.2l12,4.9l2.5-1.4l1.9,3.5l-9.9,5.4l-1.9-3.5l1.5-0.8l-7.5-3l-1.5,5.6l1,1.9l2.4-1.3
			L681.2,759.3z"/>
		<path d="M694.6,717.7l-3.5,2.8l-0.7-7.4l4.2-3.4L694.6,717.7z M696.6,717.8c6.6-5.3,14-4.7,19,1.5c5,6.2,4.2,13.9-2.3,19.2
			c-6.6,5.4-14.3,4.5-19.3-1.7C689,730.6,690,723.1,696.6,717.8z M700.3,713l-3.5,2.9l-0.6-7.5l4.2-3.4L700.3,713z M699.4,721.2
			c-3.9,3.1-3.8,7.8-0.6,11.8c3.1,3.9,7.7,5.2,11.7,2c3.9-3.1,3.7-8,0.5-12C707.8,719.2,703.2,718.1,699.4,721.2z"/>
	</g>
	<path d="M595.6,619c-5.7-1.3-11.8-1.9-17.6-2c-11.7-0.1-23.3,0.6-34.6,3.8c-6.7,1.9-9.6,7.8-7.2,14.1c2.6,6.8,9.6,10.9,16.7,9.1
		c3.6-0.9,7.1-2.9,10.4-4.8c3.2-1.8,6.1-4.4,9.3-6.2c6.9-3.8,14.3-4.9,22-2.6c7.1,2.1,11,8.3,9.9,15.7c-1.8,11.8-12.5,21.4-24.9,22
		c0-1.2,0-2.4,0-3.6c0.2-5.5,0.6-11,0.6-16.5c0-5.7-5.3-9.3-10.5-7.5c-3.4,1.2-5.2,4.1-5.2,8.3c0,6.8,0,13.6,0,20.3
		c-3.6,0-6.8,0.1-10.1,0c-5.2-0.2-8.9,2.7-9.2,7.3c-0.3,4.8,2.7,8,8.1,8.4c3.7,0.3,7.4,0.4,11.1,0.5c0.5,6.1,0.8,11.9,1.5,17.6
		c0.7,5.4,1.3,11,3,16.1c1.9,5.8,8.1,7.9,14.9,6.2c5.2-1.3,7.8-5.1,6.9-11.4c-0.5-3.6-2.1-7.1-3.3-10.6c-2.4-6.6-4.8-13.1-7.4-20
		c1.9-0.7,2.8-1,3.7-1.4c13.8-6,25.1-14.7,30.2-29.5C619.1,638,610.6,622.4,595.6,619z"/>
	<path d="M733.5,651.1c-4.1-18.6-27.3-1.1-38.9-1.8c-8.1,0.2-12.3-7.4-15.5-14.1c-4-8.8-7.2-18.1-13-25.9
		c-5.5-7.3-15.2-12.1-23.5-6.4c-15.4,11-23,43.7-20.7,61.8c1.2,13.6,9.7,18.9,22.5,20.7c8.8,1.2,18.6,0.8,26-4.6
		c9.4-6.3,7-23.8-5.7-23.3c-6.8,0.3-9.7,8-15.6,10.2c-4.4,1.8-10.2,0.1-12.7-4c-6-11.3,0.8-28.9,6.7-39.2c5.1-8.7,9.4-9.9,14.1,0.3
		c3,6.1,5.7,12.3,8.9,18.3c9,18.1,22.5,23.9,42.1,25.3c4.8,0.5,9.9,0.3,14.6-0.2c9.6-0.9,11.9-8.3,10.7-16.9L733.5,651.1z"/>
	<path d="M538.5,649.1c-2.5-4.9-6.5-9-11.5-11.4c-5.7-2.7-12.2-3.3-18.3-4.6c-5.7-1.1-15.7-2.4-14.3-10.4c0.8-3.7,3.7-6.8,6.9-8.7
		c3.5-2,7.8-2.3,11.9-2.8c4.2-0.6,8.3,0,12.6,0.3c3.2,0.1,6.5-0.3,8.6-2.9c3-3.5,1.9-9.4-2.5-11.3c-5.1-2.2-11.4-1.6-16.8-1.2
		c-15.3,1.5-32.8,9.8-35,26.9c-1.2,9.2,4.9,16.8,13.7,19.1c6.1,1.7,12.5,2.3,18.7,3.6c3.2,0.6,6.6,1.5,9.1,3.4
		c4.4,3.3,5.2,10.6,2.5,15.5c-3.8,6.8-13.6,5.9-19.8,2.8c-8.1-4.3-15.9-9.3-23.4-14.6c-3.6-2.5-7.2-5.1-11.1-7.1
		c-5.7-2.9-11.9-4.2-18.2-3.9c-5.9,0-11.7,3.1-14.3,8.5c-2.7,5.1-2.6,12.3,1.9,16.4c6.1,4.8,14.6,1.7,21.7,2.7
		c5.5,0.4,10.5,2.8,15.3,5.4c17.2,10.1,44.6,19.5,59.7,1.4c6-7.5,7.5-18.2,2.9-26.8L538.5,649.1z"/>
</g>
<g>
	<g>
		<path class="st0" d="M493,631.3c-10.5-8,1.5-22.7,11.9-22.6C495.5,613.1,486.3,620.4,493,631.3z"/>
		<path class="st0" d="M466,651.5c-7.1-4-19-9-25-0.8c-0.8,1-1,0.5-0.6-0.5C445.1,640.5,460.8,644.3,466,651.5z"/>
		<path class="st0" d="M725.7,662.9c-8.5,3.5-18.7,0.7-27.6-0.4c-1.5-0.5,0.4-0.7,1-0.6C707.9,662.4,717.2,662.6,725.7,662.9z"/>
		<path class="st0" d="M632.6,626.2c3.2-7.1,6.9-18.1,14.7-20.9C641.3,611,638.1,620.4,632.6,626.2z"/>
		<path class="st0" d="M652.6,680.7c5.9-3.7,14.2-4.4,18.2-10.8c0.6-0.7,0.8-0.4,0.6,0.4C668.7,677.4,659.3,680.6,652.6,680.7z"/>
		<path class="st0" d="M582.6,721.6c3.9-6,0.2-13.5-1.8-19.7c-0.3-0.6-0.5-2,0.5-0.9C584.7,705.9,589.5,718.3,582.6,721.6z"/>
		<path class="st0" d="M558.2,637c-3.8,4.1-13.9,4-16.4-0.1C547.1,638.9,552.8,637.6,558.2,637z"/>
	</g>
	<g>
		<path class="st0" d="M627.6,837.2c-6.1-2-3-8.3,1.2-10.8c8.5-5.5,18.7-8.8,27.9-13.1c10.2-4.5,20.2-9.4,29.7-15.1
			c40.5-24.2,69.1-59.6,88.8-101.8c2-4.1,4.3-8.1,7.3-11.1c8.6-9.3,23.9-3.4,23.1,9.4c-1,11.5-8.3,21.9-13.7,31.8
			c-24.7,40.2-59.8,72.5-103,92.5c-10.9,5.1-22.2,9-33.7,12.5c-5.7,1.7-11.4,3.6-16.9,5.1c-3.4,0.9-7.1,1.6-10.5,0.6L627.6,837.2z"
			/>
		<circle class="st0" cx="240.3" cy="660.8" r="7.4"/>
		
			<ellipse transform="matrix(0.5694 -0.8221 0.8221 0.5694 -216.044 536.9705)" class="st0" cx="404.6" cy="474.7" rx="73.7" ry="22.4"/>
		<circle class="st0" cx="487.8" cy="393.1" r="12.5"/>
		<path class="st0" d="M172.8,778.3c-1-1.7,1-2.6,2.5-2.4c3.1,0.3,6.2,1.6,9.3,2.4c3.3,0.9,6.7,1.7,10.1,2.3
			c14.5,2.2,28.4-0.7,41.6-7c1.3-0.6,2.7-1.1,4-1.2c3.9-0.5,6.3,3.9,3.5,6.9c-2.6,2.6-6.4,3.6-9.7,5c-14,4.8-28.9,5.7-43.1,1.9
			c-3.6-0.9-7.1-2.2-10.5-3.7c-1.7-0.7-3.4-1.4-5-2.1C174.5,779.8,173.5,779.3,172.8,778.3L172.8,778.3z"/>
		<path class="st0" d="M220.7,378.7c0.9-1.7,2.7-0.5,3.3,0.9c1.3,2.9,1.8,6.2,2.7,9.2c0.9,3.3,1.9,6.6,3.2,9.8
			c5.5,13.6,15.1,24.1,27.3,32.2c1.2,0.8,2.3,1.7,3.1,2.8c2.5,3.1-0.1,7.4-4.1,6.5c-3.5-0.9-6.4-3.6-9.2-5.8
			c-11.3-9.6-19.6-21.9-23.7-36.1c-1-3.6-1.7-7.2-2.2-10.9c-0.3-1.8-0.6-3.7-0.7-5.4C220.2,380.9,220.2,379.8,220.7,378.7
			L220.7,378.7z"/>
		<g>
			<path class="st0" d="M126.9,622.4c-1.3-0.3-0.7-1.7,0.1-2.3c1.6-1.3,3.6-2.1,5.4-3.2c2-1.1,3.9-2.3,5.8-3.6
				c7.8-5.6,13-13.4,16.3-22.4c0.3-0.9,0.7-1.7,1.3-2.4c1.6-2.1,4.8-1.1,4.8,1.6c0,2.4-1.3,4.7-2.2,6.8
				c-4.4,8.7-10.9,15.9-19.3,20.7c-2.1,1.2-4.3,2.2-6.6,3.1c-1.1,0.4-2.2,0.9-3.3,1.3C128.4,622.4,127.7,622.6,126.9,622.4
				L126.9,622.4z"/>
			<path class="st0" d="M518.4,304.2c-1.3-0.3-0.7-1.7,0.1-2.3c1.6-1.3,3.6-2.1,5.4-3.2c2-1.1,3.9-2.3,5.8-3.6
				c7.8-5.6,13-13.4,16.3-22.4c0.3-0.9,0.7-1.7,1.3-2.4c1.6-2.1,4.8-1.1,4.8,1.6c0,2.4-1.3,4.7-2.2,6.8
				c-4.4,8.7-10.9,15.9-19.3,20.7c-2.1,1.2-4.3,2.2-6.6,3.1c-1.1,0.4-2.2,0.9-3.3,1.3C519.8,304.2,519.1,304.4,518.4,304.2
				L518.4,304.2z"/>
			<path class="st0" d="M782.7,366c-0.9-0.2-0.5-1.2,0-1.6c1.1-0.9,2.6-1.5,3.8-2.2c1.4-0.8,2.8-1.6,4-2.5c5.5-4,9.1-9.4,11.4-15.7
				c0.2-0.6,0.5-1.2,0.9-1.7c1.1-1.4,3.3-0.8,3.4,1.1c0,1.7-0.9,3.3-1.6,4.8c-3.1,6.1-7.7,11.2-13.5,14.5c-1.5,0.9-3,1.5-4.6,2.2
				c-0.8,0.3-1.6,0.6-2.3,0.9C783.7,366,783.2,366.1,782.7,366L782.7,366z"/>
			<path class="st0" d="M860.3,345.8c1.3,0.3,0.7,1.7-0.1,2.3c-1.6,1.3-3.6,2.1-5.4,3.2c-2,1.1-3.9,2.2-5.8,3.6
				c-7.8,5.6-13,13.4-16.3,22.4c-0.3,0.9-0.7,1.7-1.3,2.4c-1.6,2.1-4.8,1.1-4.8-1.6c0-2.4,1.3-4.7,2.3-6.8
				c4.4-8.7,10.9-15.9,19.3-20.7c2.1-1.2,4.3-2.2,6.6-3.1c1.1-0.4,2.2-0.9,3.3-1.3C858.9,345.8,859.6,345.6,860.3,345.8L860.3,345.8
				z"/>
			<path class="st0" d="M967.2,541.2c1.1,0.7,0.1,1.8-0.8,2.1c-2,0.7-4.1,0.8-6.2,1.2c-2.2,0.4-4.5,0.8-6.6,1.5
				c-9.2,2.7-16.7,8.3-22.8,15.8c-0.6,0.7-1.3,1.4-2,1.8c-2.2,1.4-4.9-0.6-4-3.1c0.8-2.2,2.8-4,4.4-5.7c7-6.8,15.6-11.4,25.1-13.1
				c2.4-0.4,4.8-0.6,7.3-0.7c1.2,0,2.4-0.1,3.6-0.1C965.8,540.7,966.6,540.8,967.2,541.2L967.2,541.2z"/>
			<path class="st0" d="M1092.7,615.4c-1.2-0.4-0.7-1.7,0.2-2.3c1.7-1.2,3.7-2,5.5-2.9c2-1,4-2.1,5.9-3.4c8-5.3,13.5-12.9,17.2-21.8
				c0.4-0.9,0.8-1.7,1.4-2.3c1.7-2,4.8-0.9,4.7,1.8c-0.1,2.4-1.5,4.6-2.5,6.7c-4.7,8.5-11.6,15.5-20.2,19.9c-2.2,1.1-4.4,2-6.7,2.8
				c-1.1,0.4-2.3,0.8-3.4,1.2C1094.2,615.4,1093.4,615.6,1092.7,615.4L1092.7,615.4z"/>
			<circle class="st0" cx="112.4" cy="535.2" r="4.2"/>
			<path class="st0" d="M774.4,901.4c1.3,0.2,0.9,1.6,0.1,2.3c-1.5,1.4-3.4,2.4-5.1,3.6c-1.9,1.3-3.7,2.6-5.4,4.1
				c-7.2,6.3-11.7,14.6-14.2,23.9c-0.3,0.9-0.6,1.8-1.1,2.5c-1.4,2.2-4.6,1.5-4.9-1.1c-0.2-2.4,0.9-4.8,1.6-7
				c3.5-9.1,9.4-16.9,17.3-22.4c2-1.4,4.1-2.6,6.3-3.7c1.1-0.5,2.2-1.1,3.2-1.6C772.9,901.6,773.6,901.3,774.4,901.4L774.4,901.4z"
				/>
			<path class="st0" d="M415.6,943.8c-1.2-0.4-0.6-1.7,0.2-2.2c1.7-1.1,3.8-1.8,5.7-2.7c2.1-0.9,4.1-1.9,6-3.1
				c8.2-5,14.1-12.3,18.1-21c0.4-0.8,0.9-1.7,1.5-2.3c1.7-1.9,4.8-0.7,4.7,2c-0.2,2.4-1.7,4.5-2.8,6.6c-5.1,8.3-12.2,15-21,19.1
				c-2.2,1-4.5,1.8-6.8,2.6c-1.1,0.4-2.3,0.7-3.4,1C417.1,943.8,416.3,944,415.6,943.8L415.6,943.8z"/>
			<path class="st0" d="M969,795c-0.6,0.9-1.5,1.5-2.5,2c-1.6,0.8-3.2,1.6-4.9,2.3c-3.3,1.6-6.7,3-10.2,4.1
				c-14,4.4-28.8,4.3-42.9,0.2c-3.3-1.2-7.2-2.1-9.9-4.5c-2.9-2.8-0.7-7.3,3.2-7c1.3,0.1,2.7,0.5,4,1c13.4,5.6,27.4,7.8,41.7,4.9
				c3.4-0.7,6.7-1.6,9.9-2.7c3-0.9,6-2.3,9.1-2.8C967.9,792.4,970,793.2,969,795L969,795z"/>
			<circle class="st0" cx="402.7" cy="857.7" r="4.9"/>
			<circle class="st0" cx="899.1" cy="675.1" r="7.4"/>
		</g>
		<path class="st0" d="M232.2,507.9c-2.4-1.7-7.2,0.9-10.8,5.9c-3.6,5-4.6,10.4-2.2,12.1c2.4,1.7,7.2-0.9,10.8-5.9
			C233.6,515,234.6,509.6,232.2,507.9z"/>
		<path class="st0" d="M592.8,281.7c2.6,1.4,7-1.8,10-7.2c3-5.4,3.3-10.9,0.7-12.3c-2.6-1.4-7,1.8-10,7.2
			C590.6,274.8,590.3,280.3,592.8,281.7z"/>
		<path class="st0" d="M919.8,441.3c2.6,1.4,7-1.8,10-7.2c3-5.4,3.3-10.9,0.7-12.3c-2.6-1.4-7,1.8-10,7.2
			C917.6,434.4,917.3,439.9,919.8,441.3z"/>
		<path class="st0" d="M1038.9,346.2c-3.6-5-8.4-7.6-10.8-5.9c-2.4,1.7-1.4,7.1,2.2,12.1c3.6,5,8.4,7.6,10.8,5.9
			C1043.5,356.6,1042.5,351.2,1038.9,346.2z"/>
		<path class="st0" d="M565.4,925.6c-3.8-4.8-8.7-7.3-11-5.5c-2.3,1.8-1.1,7.2,2.6,12c3.8,4.8,8.7,7.3,11,5.5
			C570.4,935.8,569.2,930.5,565.4,925.6z"/>
		<path class="st0" d="M819.5,849.1c2.4-5.7,2.1-11.2-0.6-12.3c-2.7-1.1-6.8,2.5-9.2,8.2c-2.4,5.7-2.1,11.2,0.6,12.3
			C813.1,858.4,817.2,854.7,819.5,849.1z"/>
	</g>
</g>
</svg>
